<svg width="861" height="572" viewBox="0 0 861 572" fill="none" xmlns="http://www.w3.org/2000/svg">
<g clip-path="url(#clip0_7_2)">
<path d="M435.735 160.527C428.066 147.843 418.978 134.299 404.746 130.158C388.264 125.361 371.333 134.889 356.971 144.292C314.022 172.412 272.661 202.886 233.078 235.575L233.121 236.068C263.938 233.942 294.755 231.817 325.572 229.692C347.837 228.157 370.868 226.409 390.544 215.876C398.011 211.88 405.289 206.541 413.75 206.169C424.261 205.706 433.427 213.048 440.63 220.718C483.237 266.089 495.567 335.472 543.368 375.334C513.226 300.999 477.236 229.171 435.735 160.527Z" fill="#CCCCCC"/>
<path d="M244.982 191.378C243.543 189.774 242.113 188.169 240.664 186.565C229.242 173.933 216.985 161.447 201.3 154.205C193.821 150.642 185.656 148.75 177.373 148.658C168.811 148.686 160.441 150.932 152.53 154.076C148.789 155.57 145.131 157.266 141.529 159.072C137.413 161.144 133.37 163.354 129.346 165.581C121.792 169.761 114.335 174.125 106.977 178.672C92.337 187.72 78.1551 197.459 64.4318 207.888C57.3177 213.297 50.3505 218.883 43.53 224.646C37.1863 230 30.9709 235.497 24.8839 241.138C23.5822 242.339 21.6386 240.396 22.9403 239.195C24.5445 237.7 26.1672 236.215 27.7898 234.749C32.3735 230.605 37.0305 226.541 41.761 222.556C50.3872 215.277 59.2367 208.279 68.3095 201.563C82.4182 191.112 97.0125 181.37 112.092 172.337C119.628 167.827 127.268 163.506 135.011 159.375C137.349 158.128 139.714 156.909 142.106 155.754C147.535 153.015 153.176 150.719 158.974 148.887C167.187 146.231 175.877 145.377 184.45 146.385C192.728 147.589 200.703 150.348 207.955 154.516C223.356 163.124 235.301 176.435 246.925 189.425C248.099 190.745 246.164 192.698 244.982 191.378Z" fill="#CCCCCC"/>
<path d="M560.542 322.285L597.447 308.787L615.77 302.085C621.738 299.902 627.691 297.418 633.86 295.855C639.221 294.323 644.913 294.396 650.234 296.063C654.978 297.819 659.321 300.512 663.005 303.98C666.768 307.445 670.269 311.184 673.48 315.166C677.469 319.961 681.399 324.805 685.347 329.634C701.641 349.561 717.829 369.575 733.91 389.675C749.991 409.775 765.964 429.96 781.83 450.231C797.735 470.551 813.53 490.956 829.216 511.447C831.137 513.957 833.057 516.468 834.975 518.981C836.035 520.369 838.425 519 837.35 517.593C821.548 496.896 805.637 476.285 789.615 455.758C773.554 435.182 757.382 414.693 741.099 394.292C724.816 373.891 708.423 353.579 691.92 333.355C687.809 328.316 683.691 323.283 679.566 318.256C676.086 314.015 672.646 309.729 668.829 305.782C661.824 298.537 653.072 292.134 642.595 291.96C636.435 291.858 630.474 293.813 624.751 295.883C618.581 298.115 612.426 300.389 606.265 302.642L569.102 316.235L559.811 319.633C558.163 320.236 558.875 322.895 560.542 322.285Z" fill="#CCCCCC"/>
<path d="M196.443 170.1C177.689 160.461 153.672 162.349 136.438 174.391C169.31 180.063 201.822 187.651 233.809 197.117C220.526 189.333 210.136 177.137 196.443 170.1Z" fill="#CCCCCC"/>
<path d="M136.253 174.358L132.643 177.293C133.864 176.266 135.134 175.303 136.438 174.391C136.376 174.381 136.315 174.369 136.253 174.358Z" fill="#F2F2F2"/>
<path d="M649.249 102C677.415 102 700.249 79.1665 700.249 51C700.249 22.8335 677.415 0 649.249 0C621.082 0 598.249 22.8335 598.249 51C598.249 79.1665 621.082 102 649.249 102Z" fill="#3B82F6"/>
<path d="M741.284 11.8704C716.567 8.52949 688.349 21.8891 681.943 45.994C680.328 41.7081 677.393 38.0465 673.562 35.538C669.73 33.0295 665.2 31.8041 660.626 32.0388C656.052 32.2735 651.671 33.9562 648.116 36.8437C644.562 39.7312 642.017 43.6741 640.849 48.1027L643.679 50.1293C696.647 61.5836 751.476 61.3357 804.338 49.403C787.145 31.334 766.001 15.2113 741.284 11.8704Z" fill="#F2F2F2"/>
<path d="M691.87 543.355C687.158 537.406 685.233 536.012 680.585 530.008C642.742 481.064 607.173 430.466 573.877 378.215C551.262 342.729 529.768 306.561 509.395 269.711C499.696 252.192 490.262 234.536 481.095 216.742C473.981 202.946 467.027 189.066 460.23 175.104C458.287 171.117 456.398 167.111 454.519 163.095C450.091 153.653 445.746 144.165 441.08 134.851C435.763 124.235 429.291 113.106 419.527 105.974C415.084 102.595 409.771 100.55 404.209 100.079C396.261 99.5658 388.927 102.848 382.033 106.432C331.594 132.733 284.374 165.708 241.663 203.23C198.844 240.836 160.57 283.322 127.622 329.821C126.614 331.26 124.23 329.885 125.247 328.437C129.254 322.772 133.339 317.167 137.504 311.624C189.293 242.746 252.794 183.515 325.104 136.638C337.269 128.755 349.664 121.24 362.287 114.096C368.649 110.493 375.039 106.936 381.538 103.599C387.909 100.327 394.675 97.3839 401.954 97.2739C426.724 96.8889 439.549 124.941 448.359 143.816C451.127 149.757 453.929 155.679 456.765 161.583C467.482 183.997 478.611 206.206 490.152 228.211C497.275 241.797 504.554 255.303 511.989 268.73C535.127 310.542 559.72 351.508 585.768 391.627C620.274 444.77 654.504 491.716 693.814 541.412C694.895 542.787 692.961 544.749 691.87 543.355Z" fill="#CCCCCC"/>
<path d="M635.284 79.8704C610.567 76.5295 582.349 89.8891 575.943 113.994C574.328 109.708 571.393 106.046 567.562 103.538C563.73 101.03 559.2 99.8041 554.626 100.039C550.052 100.274 545.671 101.956 542.116 104.844C538.562 107.731 536.017 111.674 534.849 116.103L537.679 118.129C590.647 129.584 645.476 129.336 698.338 117.403C681.145 99.334 660.001 83.2113 635.284 79.8704Z" fill="#F2F2F2"/>
<path d="M851.011 92.7283C850.909 92.7285 850.807 92.7127 850.709 92.6814C586.303 9.06326 353.265 19.9978 204.33 43.8953C184.061 47.1463 163.738 50.9011 143.926 55.0564C138.868 56.116 133.62 57.2517 128.329 58.4343C122.01 59.8416 115.775 61.2908 109.797 62.74C107.215 63.3513 104.683 63.9676 102.202 64.5886C98.4438 65.5164 94.6303 66.4832 90.5424 67.5456C85.9746 68.7234 81.3334 69.9587 76.7451 71.2175C76.7283 71.2234 76.7112 71.2283 76.6938 71.2322L76.6943 71.2332C71.5117 72.6482 66.3564 74.1043 61.371 75.5584C58.6728 76.3377 56.0673 77.1062 53.5717 77.865C53.2929 77.9422 53.0459 78.0164 52.7954 78.0925L52.2592 78.2556C51.9487 78.3503 51.642 78.4431 51.3354 78.531L51.3159 78.5369L51.3163 78.5379L50.5048 78.7899C49.5371 79.0829 48.5927 79.369 47.664 79.6541C23.1191 87.2205 9.62592 92.6034 9.49262 92.6561C9.37072 92.7049 9.2404 92.7293 9.10909 92.7278C8.97777 92.7263 8.84804 92.6989 8.7273 92.6473C8.60656 92.5956 8.49716 92.5208 8.40537 92.4268C8.31358 92.3329 8.24119 92.2218 8.19233 92.0999C8.14347 91.978 8.1191 91.8477 8.12061 91.7164C8.12212 91.5851 8.14947 91.4554 8.20112 91.3346C8.25276 91.2139 8.32767 91.1045 8.42159 91.0127C8.51551 90.9209 8.62658 90.8485 8.74848 90.7996C8.88276 90.7469 22.4419 85.3368 47.0761 77.742C48.0083 77.4559 48.955 77.1698 49.9257 76.8758L50.6796 76.6414C50.7055 76.6317 50.7314 76.6239 50.7578 76.616C51.0629 76.5291 51.3676 76.4364 51.6772 76.3426L52.2143 76.1795C52.4819 76.0985 52.7455 76.0184 53.0156 75.9442C55.4941 75.1903 58.1083 74.4198 60.8134 73.6375C65.8007 72.1825 70.9609 70.7264 76.1474 69.3094C76.1635 69.3035 76.1801 69.2996 76.1963 69.2948C80.8007 68.0321 85.4589 66.7908 90.0415 65.6092C94.1357 64.5457 97.9565 63.577 101.721 62.6473C104.213 62.0272 106.749 61.4096 109.331 60.7947C115.316 59.3436 121.563 57.8924 127.894 56.4822C133.193 55.2986 138.449 54.16 143.516 53.0994C163.359 48.9373 183.713 45.1766 204.013 41.9207C353.162 17.9891 586.533 7.03687 851.312 90.7751C851.54 90.847 851.734 90.998 851.86 91.2008C851.986 91.4035 852.036 91.6447 851.999 91.8807C851.963 92.1167 851.843 92.3319 851.662 92.4873C851.481 92.6428 851.25 92.7283 851.011 92.7283Z" fill="#CCCCCC"/>
<path d="M609.936 418.247C607.588 417.577 605.185 417.094 602.751 416.805L602.748 416.805C592.367 415.583 581.529 419.608 575.62 428.894C570.259 437.32 570.101 449.712 578.054 457.301C586.132 465.009 598.04 464.708 606.916 460.212C612.596 457.335 616.709 452.537 619.81 447.393C619.904 447.459 619.998 447.526 620.093 447.593C624.814 451.01 629.789 454.064 634.973 456.727L634.991 456.736L635.009 456.745C646.182 462.301 658.21 465.939 670.589 467.509L670.602 467.51C688.376 469.688 706.412 467.367 723.056 460.76C739.673 454.164 754.37 443.507 765.804 429.765C767.622 427.801 768.669 425.243 768.747 422.566L768.749 422.511L768.749 422.456C768.729 419.689 767.631 417.039 765.688 415.068L765.636 415.015L765.581 414.964C763.659 413.2 760.991 412.135 758.349 412.015C755.666 411.894 752.691 412.754 750.626 415.271L750.624 415.273C748.186 418.251 745.564 421.073 742.774 423.725C742.235 424.236 739.797 426.167 737.096 428.283C736.532 428.725 735.961 429.171 735.406 429.606C733.578 431.035 731.915 432.335 731.209 432.917C726.617 435.936 721.772 438.558 716.728 440.753C709.77 443.596 702.497 445.593 695.063 446.701C687.497 447.61 679.848 447.602 672.284 446.676C664.731 445.569 657.337 443.572 650.254 440.727C643.012 437.468 636.132 433.455 629.73 428.753C629.362 428.481 628.992 428.211 628.62 427.944C634.291 413.878 639.469 399.608 644.355 385.3C650.439 367.483 655.957 349.484 660.909 331.306L660.909 331.306C661.522 329.055 662.126 326.801 662.721 324.545C664.085 319.384 661.143 312.997 655.29 311.637C652.632 310.964 649.815 311.344 647.43 312.699C645.032 314.06 643.257 316.299 642.479 318.945L642.467 318.985L642.456 319.025C634.618 348.705 625.25 377.959 614.39 406.671M609.936 418.247C611.446 414.403 612.925 410.542 614.39 406.671M609.936 418.247C610.899 418.522 611.854 418.829 612.798 419.167C614.29 415.365 615.751 411.55 617.196 407.732M614.39 406.671L617.196 407.732M614.39 406.671L617.196 407.732M617.196 407.732C628.093 378.924 637.492 349.571 645.357 319.791" fill="white" stroke="white" stroke-width="6"/>
<path d="M113.13 418.247C110.782 417.577 108.38 417.094 105.945 416.805L105.943 416.805C95.5612 415.583 84.7239 419.608 78.8149 428.894C73.4537 437.32 73.2959 449.712 81.2485 457.301C89.3267 465.009 101.234 464.708 110.111 460.212C115.791 457.335 119.904 452.537 123.005 447.393C123.099 447.459 123.193 447.526 123.287 447.593C128.009 451.01 132.983 454.064 138.168 456.727L138.185 456.736L138.203 456.745C149.377 462.301 161.404 465.939 173.784 467.509L173.796 467.51C191.57 469.688 209.607 467.367 226.25 460.76C242.867 454.164 257.564 443.507 268.998 429.765C270.817 427.801 271.863 425.243 271.942 422.566L271.943 422.511L271.943 422.456C271.923 419.689 270.825 417.039 268.883 415.068L268.83 415.015L268.775 414.964C266.854 413.2 264.186 412.135 261.543 412.015C258.861 411.894 255.886 412.754 253.821 415.271L253.819 415.273C251.38 418.251 248.758 421.073 245.968 423.725C245.43 424.236 242.992 426.167 240.291 428.283C239.727 428.725 239.156 429.171 238.6 429.606C236.773 431.035 235.11 432.335 234.404 432.917C229.811 435.936 224.966 438.558 219.922 440.753C212.965 443.596 205.691 445.593 198.257 446.701C190.691 447.61 183.042 447.602 175.478 446.676C167.926 445.569 160.531 443.572 153.449 440.727C146.206 437.468 139.326 433.455 132.924 428.753C132.556 428.481 132.186 428.211 131.814 427.944C137.486 413.878 142.663 399.608 147.549 385.3C153.634 367.483 159.152 349.484 164.103 331.306L164.103 331.306C164.716 329.055 165.32 326.801 165.916 324.545C167.279 319.384 164.337 312.997 158.485 311.637C155.826 310.964 153.01 311.344 150.624 312.699C148.226 314.06 146.451 316.299 145.673 318.945L145.661 318.985L145.651 319.025C137.813 348.705 128.445 377.959 117.584 406.671M113.13 418.247C114.64 414.403 116.12 410.542 117.584 406.671M113.13 418.247C114.094 418.522 115.048 418.829 115.992 419.167C117.485 415.365 118.945 411.55 120.39 407.732M117.584 406.671L120.39 407.732M117.584 406.671L120.39 407.732M120.39 407.732C131.287 378.924 140.687 349.571 148.551 319.791" fill="white" stroke="white" stroke-width="6"/>
<path d="M710.287 562.596L710.286 562.651L710.286 562.706C710.31 565.477 711.421 568.127 713.38 570.086C715.339 572.046 717.99 573.157 720.76 573.18L720.802 573.181L720.844 573.18C723.596 573.127 726.222 572.01 728.168 570.063C730.112 568.12 731.228 565.5 731.285 562.753C731.285 562.748 731.285 562.743 731.285 562.739L733.984 466.972L736.67 371.678L738.188 317.794L738.19 317.739L738.189 317.684C738.166 314.913 737.055 312.263 735.095 310.304C733.136 308.344 730.486 307.233 727.715 307.21L727.673 307.209L727.631 307.21C724.879 307.263 722.254 308.381 720.307 310.327C718.364 312.271 717.247 314.89 717.19 317.637C717.19 317.642 717.19 317.647 717.19 317.652L714.491 413.418L711.806 508.712L710.287 562.596Z" fill="white" stroke="white" stroke-width="6"/>
<path d="M213.482 562.596L213.48 562.651L213.48 562.706C213.504 565.477 214.615 568.127 216.574 570.086C218.534 572.046 221.184 573.157 223.955 573.18L223.997 573.181L224.038 573.18C226.791 573.127 229.416 572.01 231.363 570.063C233.306 568.12 234.423 565.5 234.479 562.753C234.48 562.748 234.48 562.743 234.48 562.739L237.179 466.972L239.864 371.678L241.383 317.794L241.384 317.739L241.384 317.684C241.36 314.913 240.249 312.263 238.29 310.304C236.331 308.344 233.68 307.233 230.909 307.21L230.868 307.209L230.826 307.21C228.073 307.263 225.448 308.381 223.502 310.327C221.558 312.271 220.442 314.89 220.385 317.637C220.385 317.642 220.385 317.647 220.384 317.652L217.686 413.418L215 508.712L213.482 562.596Z" fill="white" stroke="white" stroke-width="6"/>
<path d="M729.249 573C736.981 573 743.249 566.732 743.249 559C743.249 551.268 736.981 545 729.249 545C721.517 545 715.249 551.268 715.249 559C715.249 566.732 721.517 573 729.249 573Z" fill="white" stroke="white" stroke-width="6"/>
<path d="M232.443 573C240.175 573 246.443 566.732 246.443 559C246.443 551.268 240.175 545 232.443 545C224.711 545 218.443 551.268 218.443 559C218.443 566.732 224.711 573 232.443 573Z" fill="white" stroke="white" stroke-width="6"/>
<path d="M858.941 570.841L1.19067 571.148C1.03431 571.148 0.879476 571.117 0.735016 571.057C0.590556 570.997 0.459305 570.91 0.34874 570.799C0.238175 570.689 0.150459 570.557 0.0906219 570.413C0.0307847 570.269 0 570.114 0 569.957C0 569.801 0.0307847 569.646 0.0906219 569.502C0.150459 569.357 0.238175 569.226 0.34874 569.115C0.459305 569.005 0.590556 568.917 0.735016 568.857C0.879476 568.797 1.03431 568.767 1.19067 568.767L858.941 568.459C859.256 568.46 859.558 568.586 859.78 568.809C860.003 569.032 860.128 569.335 860.128 569.65C860.128 569.965 860.003 570.267 859.78 570.491C859.558 570.714 859.256 570.84 858.941 570.841Z" fill="#CCCCCC"/>
<path d="M437.121 503.58C434.189 516.659 427.166 528.463 417.071 537.28C416.331 537.92 415.591 538.54 414.821 539.15C412.951 539.32 411.094 539.493 409.251 539.67C407.721 539.81 406.211 539.96 404.711 540.1L404.441 540.13L404.251 538.49L403.491 531.85C400.543 527.037 398.715 521.622 398.144 516.006C397.573 510.391 398.272 504.718 400.191 499.41C402.831 492.29 407.611 486 412.311 479.76C418.801 471.14 425.111 462.62 425.341 452.11C428.534 456.197 431.189 460.677 433.241 465.44C431.305 466.351 429.566 467.632 428.121 469.21C427.711 469.66 427.301 470.29 427.581 470.83C427.821 471.29 428.421 471.4 428.941 471.46C430.191 471.59 431.451 471.72 432.701 471.85C433.701 471.96 434.701 472.06 435.701 472.17C436.911 476.141 437.731 480.22 438.151 484.35C438.825 490.774 438.477 497.264 437.121 503.58Z" fill="#F2F2F2"/>
<path d="M470.321 477.37C464.421 481.66 460.971 487.83 458.291 494.63C455.544 495.509 453.073 497.087 451.121 499.21C450.711 499.66 450.301 500.29 450.581 500.83C450.821 501.29 451.421 501.4 451.941 501.46C453.191 501.59 454.451 501.72 455.701 501.85C453.021 509.89 450.561 518.21 445.821 525C442.668 529.483 438.559 533.209 433.791 535.91C432.49 536.651 431.148 537.315 429.771 537.9C424.691 538.29 419.707 538.707 414.821 539.15C412.951 539.32 411.094 539.493 409.251 539.67C407.721 539.81 406.211 539.96 404.711 540.1C404.701 539.55 404.701 539 404.711 538.45C405.027 523.799 410.417 509.711 419.961 498.59C420.411 498.07 420.871 497.56 421.341 497.05C426.176 491.886 431.862 487.59 438.151 484.35C448.06 479.198 459.167 476.788 470.321 477.37Z" fill="#3B82F6"/>
<path d="M410.981 534.54L409.831 537.94L409.251 539.67C407.721 539.81 406.211 539.96 404.711 540.1L404.441 540.13C402.781 540.3 401.131 540.47 399.481 540.64C399.051 540.14 398.621 539.63 398.201 539.11C387.763 526.47 382.753 510.213 384.265 493.89C385.777 477.568 393.688 462.507 406.271 452C404.951 458.91 406.491 465.53 409.021 472.1C408.751 472.21 408.491 472.32 408.241 472.44C406.305 473.351 404.566 474.632 403.121 476.21C402.711 476.66 402.301 477.29 402.581 477.83C402.821 478.29 403.421 478.4 403.941 478.46C405.191 478.59 406.451 478.72 407.701 478.85C408.701 478.96 409.701 479.06 410.701 479.17C411.171 479.22 411.641 479.27 412.111 479.32C412.181 479.47 412.241 479.61 412.311 479.76C415.161 485.94 418.231 492.15 419.961 498.59C420.394 500.206 420.735 501.845 420.981 503.5C421.751 509.093 421.252 514.787 419.521 520.16C417.789 525.534 414.871 530.449 410.981 534.54Z" fill="#3B82F6"/>
<path d="M518.689 390.076C510.08 373.284 496.743 359.156 481.057 348.773C465.32 338.404 447.263 332.09 428.494 330.393C426.034 330.169 423.567 330.038 421.095 330C418.174 329.956 374.229 342.632 359.508 352.982C344.795 363.206 332.692 376.746 324.175 392.509C315.673 408.358 311.491 426.166 312.049 444.143C312.778 462.228 317.819 479.877 326.752 495.618C335.563 511.309 348.074 524.61 363.196 534.364C378.534 544.151 393.941 570.1 412.051 571.016C430.296 571.939 451.105 547.461 467.746 540.029C484.387 532.535 498.773 520.81 509.471 506.024C519.867 491.533 526.592 474.737 529.07 457.076C531.644 438.993 530.444 420.343 524.269 403.06C522.685 398.619 520.821 394.282 518.689 390.076C516.909 386.571 511.693 385.281 508.427 387.386C506.745 388.422 505.527 390.066 505.026 391.977C504.525 393.888 504.779 395.919 505.737 397.647C506.782 399.706 507.754 401.798 508.652 403.925L507.896 402.133C511.296 410.308 513.608 418.894 514.773 427.671L514.505 425.678C515.743 435.2 515.721 444.844 514.438 454.36L514.706 452.366C513.41 461.882 510.87 471.186 507.152 480.04L507.908 478.249C505.995 482.767 503.766 487.144 501.236 491.347C499.954 493.471 498.594 495.545 497.156 497.569C496.524 498.457 495.873 499.33 495.217 500.2C494.36 501.336 496.384 498.717 495.499 499.831C495.348 500.02 495.199 500.211 495.047 500.4C494.593 500.968 494.132 501.53 493.665 502.088C490.547 505.807 487.145 509.279 483.489 512.471C482.578 513.266 481.652 514.043 480.711 514.802C480.242 515.181 479.779 515.575 479.29 515.927C479.309 515.914 480.87 514.728 479.946 515.416C479.655 515.632 479.367 515.852 479.076 516.068C477.136 517.505 475.145 518.869 473.102 520.16C468.398 523.123 463.464 525.702 458.346 527.873L460.138 527.117C451.31 530.833 442.031 533.372 432.541 534.668L434.535 534.401C425.05 535.682 415.436 535.699 405.946 534.451L407.94 534.719C399.315 533.561 390.878 531.28 382.844 527.935L384.636 528.691C379.983 526.726 375.496 524.388 371.22 521.7C369.104 520.366 367.043 518.951 365.036 517.452C364.75 517.239 364.466 517.022 364.181 516.807C363.266 516.116 364.839 517.316 364.852 517.325C364.319 516.943 363.807 516.534 363.317 516.1C362.348 515.311 361.394 514.504 360.455 513.678C356.699 510.371 353.192 506.791 349.962 502.969C349.153 502.013 348.362 501.043 347.588 500.058C347.253 499.632 346.641 498.768 347.992 500.587C347.814 500.348 347.63 500.113 347.451 499.875C347.02 499.303 346.594 498.727 346.175 498.147C344.706 496.115 343.31 494.033 341.987 491.901C338.997 487.075 336.387 482.024 334.182 476.793L334.938 478.584C331.329 469.998 328.861 460.975 327.597 451.747L327.865 453.741C326.725 445.235 326.709 436.616 327.817 428.105L327.549 430.099C328.685 421.858 330.902 413.802 334.144 406.14L333.387 407.931C335.427 403.135 337.832 398.502 340.583 394.075C341.96 391.86 343.419 389.698 344.96 387.591C345.31 387.112 345.665 386.636 346.023 386.163C346.347 385.735 347.238 384.669 345.717 386.551C345.866 386.367 346.01 386.177 346.157 385.991C347.003 384.919 347.869 383.864 348.756 382.826C352.114 378.895 355.751 375.212 359.64 371.805C360.622 370.944 361.621 370.101 362.634 369.276C363.095 368.901 363.559 368.53 364.025 368.163C364.212 368.016 364.401 367.872 364.587 367.724C362.589 369.314 364.032 368.157 364.485 367.817C366.575 366.252 368.72 364.765 370.921 363.356C375.813 360.227 380.96 357.515 386.307 355.248L384.516 356.004C392.276 352.746 426.656 345.055 432.91 345.894L430.916 345.627C440.107 346.91 449.09 349.392 457.636 353.009L455.844 352.253C460.175 354.092 464.383 356.206 468.444 358.582C470.473 359.771 472.462 361.026 474.412 362.345C475.334 362.969 476.247 363.607 477.15 364.26C477.601 364.586 478.05 364.915 478.496 365.248C478.744 365.433 478.99 365.621 479.237 365.806C480.277 366.585 477.806 364.678 478.895 365.54C482.541 368.404 486.004 371.495 489.263 374.793C490.864 376.423 492.409 378.105 493.9 379.838C494.664 380.728 495.413 381.63 496.146 382.546C496.511 383.001 497.751 384.647 496.231 382.63C496.602 383.123 496.978 383.613 497.345 384.109C500.505 388.387 503.312 392.914 505.737 397.647C507.53 401.145 512.724 402.449 515.998 400.338C517.681 399.302 518.9 397.658 519.401 395.747C519.902 393.835 519.647 391.804 518.689 390.076Z" fill="white"/>
<path d="M518.689 390.076C510.08 373.284 496.743 359.156 481.057 348.773C465.32 338.404 447.263 332.09 428.494 330.393C426.034 330.169 423.567 330.038 421.095 330C418.174 329.956 374.229 342.632 359.508 352.982C344.795 363.206 332.692 376.746 324.175 392.509C315.673 408.358 311.491 426.166 312.049 444.143C312.778 462.228 317.819 479.877 326.752 495.618C335.563 511.309 348.074 524.61 363.196 534.364C378.534 544.151 393.941 570.1 412.051 571.016C430.296 571.939 451.105 547.461 467.746 540.029C484.387 532.535 498.773 520.81 509.471 506.024C519.867 491.533 526.592 474.737 529.07 457.076C531.644 438.993 530.444 420.343 524.269 403.06C522.685 398.619 520.821 394.282 518.689 390.076ZM518.689 390.076C516.909 386.571 511.693 385.281 508.427 387.386C506.745 388.422 505.527 390.066 505.026 391.977C504.525 393.888 504.779 395.919 505.737 397.647M518.689 390.076C519.647 391.804 519.902 393.835 519.401 395.747C518.9 397.658 517.681 399.302 515.998 400.338C512.724 402.449 507.53 401.145 505.737 397.647M505.737 397.647C506.782 399.706 507.754 401.798 508.652 403.925L507.896 402.133C511.296 410.308 513.608 418.894 514.773 427.671L514.505 425.678C515.743 435.2 515.721 444.844 514.438 454.36L514.706 452.366C513.41 461.882 510.87 471.186 507.152 480.04L507.908 478.249C505.995 482.767 503.766 487.144 501.236 491.347C499.954 493.471 498.594 495.545 497.156 497.569C496.524 498.457 495.873 499.33 495.217 500.2C494.36 501.336 496.384 498.717 495.499 499.831C495.348 500.02 495.199 500.211 495.047 500.4C494.593 500.968 494.132 501.53 493.665 502.088C490.547 505.807 487.145 509.279 483.489 512.471C482.578 513.266 481.652 514.043 480.711 514.802C480.242 515.181 479.779 515.575 479.29 515.927C479.309 515.914 480.87 514.728 479.946 515.416C479.655 515.632 479.367 515.852 479.076 516.068C477.136 517.505 475.145 518.869 473.102 520.16C468.398 523.123 463.464 525.702 458.346 527.873L460.138 527.117C451.31 530.833 442.031 533.372 432.541 534.668L434.535 534.401C425.05 535.682 415.436 535.699 405.946 534.451L407.94 534.719C399.315 533.561 390.878 531.28 382.844 527.935L384.636 528.691C379.983 526.726 375.496 524.388 371.22 521.7C369.104 520.366 367.043 518.951 365.036 517.452C364.75 517.239 364.466 517.022 364.181 516.807C363.266 516.116 364.839 517.316 364.852 517.325C364.319 516.943 363.807 516.534 363.317 516.1C362.348 515.311 361.394 514.504 360.455 513.678C356.699 510.371 353.192 506.791 349.962 502.969C349.153 502.013 348.362 501.043 347.588 500.058C347.253 499.632 346.641 498.768 347.992 500.587C347.814 500.348 347.63 500.113 347.451 499.875C347.02 499.303 346.594 498.727 346.175 498.147C344.706 496.115 343.31 494.033 341.987 491.901C338.997 487.075 336.387 482.024 334.182 476.793L334.938 478.584C331.329 469.998 328.861 460.975 327.597 451.747L327.865 453.741C326.725 445.235 326.709 436.616 327.817 428.105L327.549 430.099C328.685 421.858 330.902 413.802 334.144 406.14L333.387 407.931C335.427 403.135 337.832 398.502 340.583 394.075C341.96 391.86 343.419 389.698 344.96 387.591C345.31 387.112 345.665 386.636 346.023 386.163C346.347 385.735 347.238 384.669 345.717 386.551C345.866 386.367 346.01 386.177 346.157 385.991C347.003 384.919 347.869 383.864 348.756 382.826C352.114 378.895 355.751 375.212 359.64 371.805C360.622 370.944 361.621 370.101 362.634 369.276C363.095 368.901 363.559 368.53 364.025 368.163C364.212 368.016 364.401 367.872 364.587 367.724C362.589 369.314 364.032 368.157 364.485 367.817C366.575 366.252 368.72 364.765 370.921 363.356C375.813 360.227 380.96 357.515 386.307 355.248L384.516 356.004C392.276 352.746 426.656 345.055 432.91 345.894L430.916 345.627C440.107 346.91 449.09 349.392 457.636 353.009L455.844 352.253C460.175 354.092 464.383 356.206 468.444 358.582C470.473 359.771 472.462 361.026 474.412 362.345C475.334 362.969 476.247 363.607 477.15 364.26C477.601 364.586 478.05 364.915 478.496 365.248C478.744 365.433 478.99 365.621 479.237 365.806C480.277 366.585 477.806 364.678 478.895 365.54C482.541 368.404 486.004 371.495 489.263 374.793C490.864 376.423 492.409 378.105 493.9 379.838C494.664 380.728 495.413 381.63 496.146 382.546C496.511 383.001 497.751 384.647 496.231 382.63C496.602 383.123 496.978 383.613 497.345 384.109C500.505 388.387 503.312 392.914 505.737 397.647Z" stroke="white" stroke-width="12"/>
<rect x="367.502" y="511.952" width="6.08087" height="6.08039" transform="rotate(35.1706 367.502 511.952)" fill="white"/>
<rect x="352.255" y="496.586" width="6.08087" height="6.77039" transform="rotate(50.9107 352.255 496.586)" fill="white"/>
<rect x="476.06" y="510.951" width="7.93904" height="6.11365" transform="rotate(52.6656 476.06 510.951)" fill="white"/>
<rect x="500.688" y="371.517" width="12.306" height="16.3416" transform="rotate(51.0054 500.688 371.517)" fill="white"/>
<rect x="367.901" y="363" width="7.43512" height="7.59308" transform="rotate(51.0054 367.901 363)" fill="white"/>
<rect x="343.439" y="383" width="9.73374" height="7.59308" transform="rotate(35.7731 343.439 383)" fill="white"/>
</g>
<defs>
<clipPath id="clip0_7_2">
<rect width="860.131" height="571.148" fill="white"/>
</clipPath>
</defs>
</svg>
