<svg width="861" height="572" viewBox="0 0 861 572" fill="none" xmlns="http://www.w3.org/2000/svg">
<g clip-path="url(#clip0_7_2)">
<path d="M435.735 160.527C428.066 147.843 418.978 134.299 404.746 130.158C388.264 125.361 371.333 134.889 356.971 144.292C314.022 172.412 272.661 202.886 233.078 235.575L233.121 236.068C263.938 233.942 294.755 231.817 325.572 229.692C347.837 228.157 370.868 226.409 390.544 215.876C398.011 211.88 405.289 206.541 413.75 206.169C424.261 205.706 433.427 213.048 440.63 220.718C483.237 266.089 495.567 335.472 543.368 375.334C513.226 300.999 477.236 229.171 435.735 160.527Z" fill="#CCCCCC"/>
<path d="M244.982 191.378C243.543 189.774 242.113 188.169 240.664 186.565C229.242 173.933 216.985 161.447 201.3 154.205C193.821 150.642 185.656 148.75 177.373 148.658C168.811 148.686 160.441 150.932 152.53 154.076C148.789 155.57 145.131 157.266 141.529 159.072C137.413 161.144 133.37 163.354 129.346 165.581C121.792 169.761 114.335 174.125 106.977 178.672C92.337 187.72 78.1551 197.459 64.4318 207.888C57.3177 213.297 50.3505 218.883 43.53 224.646C37.1863 230 30.9709 235.497 24.8839 241.138C23.5822 242.339 21.6386 240.396 22.9403 239.195C24.5445 237.7 26.1672 236.215 27.7898 234.749C32.3735 230.605 37.0305 226.541 41.761 222.556C50.3872 215.277 59.2367 208.279 68.3095 201.563C82.4182 191.112 97.0125 181.37 112.092 172.337C119.628 167.827 127.268 163.506 135.011 159.375C137.349 158.128 139.714 156.909 142.106 155.754C147.535 153.015 153.176 150.719 158.974 148.887C167.187 146.231 175.877 145.377 184.45 146.385C192.728 147.589 200.703 150.348 207.955 154.516C223.356 163.124 235.301 176.435 246.925 189.425C248.099 190.745 246.164 192.698 244.982 191.378Z" fill="#CCCCCC"/>
<path d="M560.542 322.285L597.447 308.787L615.77 302.085C621.738 299.902 627.691 297.418 633.86 295.855C639.221 294.323 644.913 294.396 650.234 296.063C654.978 297.819 659.321 300.512 663.005 303.98C666.768 307.445 670.269 311.184 673.48 315.166C677.469 319.961 681.399 324.805 685.347 329.634C701.641 349.561 717.829 369.575 733.91 389.675C749.991 409.775 765.964 429.96 781.83 450.231C797.735 470.551 813.53 490.956 829.216 511.447C831.137 513.957 833.057 516.468 834.975 518.981C836.035 520.369 838.425 519 837.35 517.593C821.548 496.896 805.637 476.285 789.615 455.758C773.554 435.182 757.382 414.693 741.099 394.292C724.816 373.891 708.423 353.579 691.92 333.355C687.809 328.316 683.691 323.283 679.566 318.256C676.086 314.015 672.646 309.729 668.829 305.782C661.824 298.537 653.072 292.134 642.595 291.96C636.435 291.858 630.474 293.813 624.751 295.883C618.581 298.115 612.426 300.389 606.265 302.642L569.102 316.235L559.811 319.633C558.163 320.236 558.875 322.895 560.542 322.285Z" fill="#CCCCCC"/>
<path d="M196.443 170.1C177.689 160.461 153.672 162.349 136.438 174.391C169.31 180.063 201.822 187.651 233.809 197.117C220.526 189.333 210.136 177.137 196.443 170.1Z" fill="#CCCCCC"/>
<path d="M136.253 174.358L132.643 177.293C133.864 176.266 135.134 175.303 136.438 174.391C136.376 174.381 136.315 174.369 136.253 174.358Z" fill="#F2F2F2"/>
<path d="M649.249 102C677.415 102 700.249 79.1665 700.249 51C700.249 22.8335 677.415 0 649.249 0C621.082 0 598.249 22.8335 598.249 51C598.249 79.1665 621.082 102 649.249 102Z" fill="#3B82F6"/>
<path d="M741.284 11.8704C716.567 8.52949 688.349 21.8891 681.943 45.994C680.328 41.7081 677.393 38.0465 673.562 35.538C669.73 33.0295 665.2 31.8041 660.626 32.0388C656.052 32.2735 651.671 33.9562 648.116 36.8437C644.562 39.7312 642.017 43.6741 640.849 48.1027L643.679 50.1293C696.647 61.5836 751.476 61.3357 804.338 49.403C787.145 31.334 766.001 15.2113 741.284 11.8704Z" fill="#F2F2F2"/>
<path d="M691.87 543.355C687.158 537.406 685.233 536.012 680.585 530.008C642.742 481.064 607.173 430.466 573.877 378.215C551.262 342.729 529.768 306.561 509.395 269.711C499.696 252.192 490.262 234.536 481.095 216.742C473.982 202.946 467.027 189.066 460.23 175.104C458.287 171.117 456.398 167.111 454.519 163.095C450.091 153.653 445.746 144.165 441.08 134.851C435.763 124.235 429.291 113.106 419.527 105.974C415.084 102.595 409.771 100.55 404.209 100.079C396.261 99.5658 388.927 102.848 382.033 106.432C331.594 132.733 284.374 165.708 241.663 203.23C198.844 240.836 160.57 283.322 127.622 329.821C126.614 331.26 124.23 329.885 125.247 328.437C129.254 322.772 133.339 317.167 137.504 311.624C189.293 242.746 252.794 183.515 325.104 136.638C337.269 128.755 349.664 121.24 362.287 114.096C368.649 110.493 375.039 106.936 381.538 103.599C387.909 100.327 394.675 97.3839 401.954 97.2739C426.724 96.8889 439.549 124.941 448.359 143.816C451.127 149.757 453.929 155.679 456.765 161.583C467.482 183.997 478.611 206.206 490.152 228.211C497.275 241.797 504.554 255.303 511.989 268.73C535.127 310.542 559.72 351.508 585.768 391.627C620.274 444.77 654.504 491.716 693.814 541.412C694.895 542.787 692.961 544.749 691.87 543.355Z" fill="#CCCCCC"/>
<path d="M635.284 79.8704C610.567 76.5295 582.349 89.8891 575.943 113.994C574.328 109.708 571.393 106.046 567.562 103.538C563.73 101.03 559.2 99.8041 554.626 100.039C550.052 100.274 545.671 101.956 542.116 104.844C538.562 107.731 536.017 111.674 534.849 116.103L537.679 118.129C590.647 129.584 645.476 129.336 698.338 117.403C681.145 99.334 660.001 83.2113 635.284 79.8704Z" fill="#F2F2F2"/>
<g filter="url(#filter0_d_7_2)">
<path d="M851.011 92.7283C850.909 92.7285 850.807 92.7127 850.709 92.6814C586.303 9.06326 353.265 19.9978 204.33 43.8953C184.061 47.1463 163.738 50.9011 143.926 55.0564C138.868 56.116 133.62 57.2517 128.329 58.4343C122.01 59.8416 115.775 61.2908 109.797 62.74C107.215 63.3513 104.683 63.9676 102.202 64.5886C98.4438 65.5164 94.6303 66.4832 90.5424 67.5456C85.9746 68.7234 81.3334 69.9587 76.7451 71.2175C76.7283 71.2234 76.7112 71.2283 76.6938 71.2322L76.6943 71.2332C71.5117 72.6482 66.3564 74.1043 61.371 75.5584C58.6728 76.3377 56.0673 77.1062 53.5717 77.865C53.2929 77.9422 53.0459 78.0164 52.7954 78.0925L52.2592 78.2556C51.9487 78.3503 51.642 78.4431 51.3354 78.531L51.3159 78.5369L51.3163 78.5379L50.5048 78.7899C49.5371 79.0829 48.5927 79.369 47.664 79.6541C23.1191 87.2205 9.62592 92.6034 9.49262 92.6561C9.37072 92.7049 9.2404 92.7293 9.10909 92.7278C8.97777 92.7263 8.84804 92.6989 8.7273 92.6473C8.60656 92.5956 8.49716 92.5208 8.40537 92.4268C8.31358 92.3329 8.24119 92.2218 8.19233 92.0999C8.14347 91.978 8.1191 91.8477 8.12061 91.7164C8.12212 91.5851 8.14947 91.4554 8.20112 91.3346C8.25276 91.2139 8.32767 91.1045 8.42159 91.0127C8.51551 90.9209 8.62658 90.8485 8.74848 90.7996C8.88276 90.7469 22.4419 85.3368 47.0761 77.742C48.0083 77.4559 48.955 77.1698 49.9257 76.8758L50.6796 76.6414C50.7055 76.6317 50.7314 76.6239 50.7578 76.616C51.0629 76.5291 51.3676 76.4364 51.6772 76.3426L52.2143 76.1795C52.4819 76.0985 52.7455 76.0184 53.0156 75.9442C55.4941 75.1903 58.1083 74.4198 60.8134 73.6375C65.8007 72.1824 70.9609 70.7264 76.1474 69.3094C76.1635 69.3035 76.1801 69.2996 76.1963 69.2948C80.8007 68.0321 85.4589 66.7908 90.0415 65.6092C94.1357 64.5457 97.9565 63.577 101.721 62.6473C104.213 62.0272 106.749 61.4096 109.331 60.7947C115.316 59.3436 121.563 57.8924 127.894 56.4822C133.193 55.2986 138.449 54.16 143.516 53.0994C163.359 48.9373 183.713 45.1766 204.013 41.9207C353.162 17.9891 586.533 7.03687 851.312 90.7751C851.54 90.847 851.734 90.998 851.86 91.2008C851.986 91.4035 852.036 91.6447 851.999 91.8807C851.963 92.1167 851.843 92.3319 851.662 92.4873C851.481 92.6428 851.25 92.7283 851.011 92.7283Z" fill="#CCCCCC"/>
</g>
<path d="M594.936 418.247C592.588 417.577 590.185 417.094 587.751 416.805L587.748 416.805C577.367 415.583 566.529 419.608 560.62 428.894C555.259 437.32 555.101 449.712 563.054 457.301C571.132 465.009 583.04 464.708 591.916 460.212C597.596 457.335 601.709 452.537 604.81 447.393C604.904 447.459 604.998 447.526 605.093 447.593C609.814 451.01 614.789 454.064 619.973 456.727L619.991 456.736L620.009 456.745C631.182 462.301 643.21 465.939 655.589 467.509L655.602 467.51C673.376 469.688 691.412 467.367 708.056 460.76C724.673 454.164 739.37 443.507 750.804 429.765C752.622 427.801 753.669 425.244 753.747 422.566L753.749 422.511L753.749 422.456C753.729 419.689 752.631 417.039 750.688 415.068L750.636 415.015L750.581 414.964C748.659 413.2 745.991 412.135 743.349 412.015C740.666 411.894 737.691 412.754 735.626 415.271L735.624 415.273C733.186 418.251 730.564 421.073 727.774 423.725C727.235 424.236 724.797 426.167 722.096 428.283C721.532 428.725 720.961 429.171 720.406 429.606C718.578 431.035 716.915 432.335 716.209 432.917C711.617 435.936 706.772 438.558 701.728 440.753C694.77 443.596 687.497 445.593 680.063 446.701C672.497 447.61 664.848 447.602 657.284 446.676C649.731 445.569 642.337 443.572 635.254 440.727C628.012 437.468 621.132 433.455 614.73 428.753C614.362 428.481 613.992 428.211 613.62 427.944C619.291 413.878 624.469 399.608 629.355 385.3C635.439 367.483 640.957 349.484 645.909 331.306L645.909 331.306C646.522 329.055 647.126 326.801 647.721 324.545C649.085 319.384 646.143 312.997 640.29 311.637C637.632 310.964 634.815 311.344 632.43 312.699C630.032 314.06 628.257 316.299 627.479 318.945L627.467 318.985L627.456 319.025C619.618 348.705 610.25 377.959 599.39 406.671M594.936 418.247C596.446 414.403 597.925 410.542 599.39 406.671M594.936 418.247C595.899 418.522 596.854 418.829 597.798 419.167C599.29 415.365 600.751 411.55 602.196 407.732M599.39 406.671L602.196 407.732M599.39 406.671L602.196 407.732M602.196 407.732C613.093 378.924 622.492 349.571 630.357 319.791" fill="white" stroke="white" stroke-width="6"/>
<path d="M98.1302 418.247C95.7821 417.577 93.3796 417.094 90.9452 416.805L90.9427 416.805C80.5612 415.583 69.7239 419.608 63.8149 428.894C58.4537 437.32 58.2959 449.712 66.2485 457.301C74.3267 465.009 86.2341 464.708 95.1107 460.212C100.791 457.335 104.904 452.537 108.005 447.393C108.099 447.459 108.193 447.526 108.287 447.593C113.009 451.01 117.983 454.064 123.168 456.727L123.185 456.736L123.203 456.745C134.377 462.301 146.404 465.939 158.784 467.509L158.796 467.51C176.57 469.688 194.607 467.367 211.25 460.76C227.867 454.164 242.564 443.507 253.998 429.765C255.817 427.801 256.863 425.244 256.942 422.566L256.943 422.511L256.943 422.456C256.923 419.689 255.825 417.039 253.883 415.068L253.83 415.015L253.775 414.964C251.854 413.2 249.186 412.135 246.543 412.015C243.861 411.894 240.886 412.754 238.82 415.271L238.819 415.273C236.38 418.251 233.758 421.073 230.968 423.725C230.43 424.236 227.992 426.167 225.291 428.283C224.727 428.725 224.156 429.171 223.6 429.606C221.773 431.035 220.11 432.335 219.404 432.917C214.811 435.936 209.967 438.558 204.922 440.753C197.965 443.596 190.691 445.593 183.257 446.701C175.691 447.61 168.042 447.602 160.478 446.676C152.926 445.569 145.531 443.572 138.449 440.727C131.206 437.468 124.326 433.455 117.924 428.753C117.556 428.481 117.186 428.211 116.814 427.944C122.486 413.878 127.663 399.608 132.549 385.3C138.634 367.483 144.152 349.484 149.103 331.306L149.103 331.306C149.716 329.055 150.32 326.801 150.916 324.545C152.279 319.384 149.337 312.997 143.485 311.637C140.826 310.964 138.01 311.344 135.624 312.699C133.226 314.06 131.451 316.299 130.673 318.945L130.661 318.985L130.651 319.025C122.813 348.705 113.445 377.959 102.584 406.671M98.1302 418.247C99.6405 414.403 101.12 410.542 102.584 406.671M98.1302 418.247C99.0938 418.522 100.048 418.829 100.992 419.167C102.485 415.365 103.945 411.55 105.39 407.732M102.584 406.671L105.39 407.732M102.584 406.671L105.39 407.732M105.39 407.732C116.287 378.924 125.687 349.571 133.551 319.791" fill="white" stroke="white" stroke-width="6"/>
<path d="M695.287 562.596L695.286 562.651L695.286 562.706C695.31 565.477 696.421 568.127 698.38 570.086C700.339 572.046 702.99 573.157 705.76 573.18L705.802 573.181L705.844 573.18C708.596 573.127 711.222 572.01 713.168 570.063C715.112 568.12 716.228 565.5 716.285 562.753C716.285 562.748 716.285 562.743 716.285 562.739L718.984 466.972L721.67 371.678L723.188 317.794L723.19 317.739L723.189 317.684C723.166 314.913 722.055 312.263 720.095 310.304C718.136 308.344 715.486 307.233 712.715 307.21L712.673 307.209L712.631 307.21C709.879 307.263 707.254 308.381 705.307 310.327C703.364 312.271 702.247 314.89 702.19 317.637C702.19 317.642 702.19 317.647 702.19 317.652L699.491 413.418L696.806 508.712L695.287 562.596Z" fill="white" stroke="white" stroke-width="6"/>
<path d="M198.482 562.596L198.48 562.651L198.48 562.706C198.504 565.477 199.615 568.127 201.574 570.086C203.534 572.046 206.184 573.157 208.955 573.18L208.997 573.181L209.038 573.18C211.791 573.127 214.416 572.01 216.363 570.063C218.306 568.12 219.423 565.5 219.479 562.753C219.48 562.748 219.48 562.743 219.48 562.739L222.179 466.972L224.864 371.678L226.383 317.794L226.384 317.739L226.384 317.684C226.36 314.913 225.249 312.263 223.29 310.304C221.331 308.344 218.68 307.233 215.909 307.21L215.868 307.209L215.826 307.21C213.073 307.263 210.448 308.381 208.502 310.327C206.558 312.271 205.442 314.89 205.385 317.637C205.385 317.642 205.385 317.647 205.384 317.652L202.686 413.418L200 508.712L198.482 562.596Z" fill="white" stroke="white" stroke-width="6"/>
<path d="M714.249 573C721.981 573 728.249 566.732 728.249 559C728.249 551.268 721.981 545 714.249 545C706.517 545 700.249 551.268 700.249 559C700.249 566.732 706.517 573 714.249 573Z" fill="white" stroke="white" stroke-width="6"/>
<path d="M217.443 573C225.175 573 231.443 566.732 231.443 559C231.443 551.268 225.175 545 217.443 545C209.711 545 203.443 551.268 203.443 559C203.443 566.732 209.711 573 217.443 573Z" fill="white" stroke="white" stroke-width="6"/>
<path d="M858.941 570.841L1.19067 571.148C1.03431 571.148 0.879476 571.117 0.735016 571.057C0.590556 570.997 0.459305 570.91 0.34874 570.799C0.238175 570.689 0.150459 570.557 0.0906219 570.413C0.0307847 570.269 0 570.114 0 569.957C0 569.801 0.0307847 569.646 0.0906219 569.502C0.150459 569.357 0.238175 569.226 0.34874 569.115C0.459305 569.005 0.590556 568.917 0.735016 568.857C0.879476 568.797 1.03431 568.767 1.19067 568.767L858.941 568.459C859.256 568.46 859.558 568.586 859.78 568.809C860.003 569.032 860.128 569.335 860.128 569.65C860.128 569.965 860.003 570.267 859.78 570.491C859.558 570.714 859.256 570.84 858.941 570.841Z" fill="#CCCCCC"/>
<path d="M422.121 503.58C419.189 516.659 412.166 528.463 402.071 537.28C401.331 537.92 400.591 538.54 399.821 539.15C397.951 539.32 396.094 539.493 394.251 539.67C392.721 539.81 391.211 539.96 389.711 540.1L389.441 540.13L389.251 538.49L388.491 531.85C385.543 527.037 383.715 521.622 383.144 516.006C382.573 510.391 383.272 504.718 385.191 499.41C387.831 492.29 392.611 486 397.311 479.76C403.801 471.14 410.111 462.62 410.341 452.11C413.534 456.197 416.189 460.677 418.241 465.44C416.305 466.351 414.566 467.632 413.121 469.21C412.711 469.66 412.301 470.29 412.581 470.83C412.821 471.29 413.421 471.4 413.941 471.46C415.191 471.59 416.451 471.72 417.701 471.85C418.701 471.96 419.701 472.06 420.701 472.17C421.911 476.141 422.731 480.22 423.151 484.35C423.825 490.774 423.477 497.264 422.121 503.58Z" fill="#F2F2F2"/>
<path d="M455.321 477.37C449.421 481.66 445.971 487.83 443.291 494.63C440.544 495.509 438.073 497.087 436.121 499.21C435.711 499.66 435.301 500.29 435.581 500.83C435.821 501.29 436.421 501.4 436.941 501.46C438.191 501.59 439.451 501.72 440.701 501.85C438.021 509.89 435.561 518.21 430.821 525C427.668 529.483 423.559 533.209 418.791 535.91C417.49 536.651 416.148 537.315 414.771 537.9C409.691 538.29 404.707 538.707 399.821 539.15C397.951 539.32 396.094 539.493 394.251 539.67C392.721 539.81 391.211 539.96 389.711 540.1C389.701 539.55 389.701 539 389.711 538.45C390.027 523.799 395.417 509.711 404.961 498.59C405.411 498.07 405.871 497.56 406.341 497.05C411.176 491.886 416.862 487.59 423.151 484.35C433.06 479.198 444.167 476.788 455.321 477.37Z" fill="#3B82F6"/>
<path d="M395.981 534.54L394.831 537.94L394.251 539.67C392.721 539.81 391.211 539.96 389.711 540.1L389.441 540.13C387.781 540.3 386.131 540.47 384.481 540.64C384.051 540.14 383.621 539.63 383.201 539.11C372.763 526.47 367.753 510.213 369.265 493.89C370.777 477.568 378.688 462.507 391.271 452C389.951 458.91 391.491 465.53 394.021 472.1C393.751 472.21 393.491 472.32 393.241 472.44C391.305 473.351 389.566 474.632 388.121 476.21C387.711 476.66 387.301 477.29 387.581 477.83C387.821 478.29 388.421 478.4 388.941 478.46C390.191 478.59 391.451 478.72 392.701 478.85C393.701 478.96 394.701 479.06 395.701 479.17C396.171 479.22 396.641 479.27 397.111 479.32C397.181 479.47 397.241 479.61 397.311 479.76C400.161 485.94 403.231 492.15 404.961 498.59C405.394 500.206 405.735 501.845 405.981 503.5C406.751 509.093 406.252 514.787 404.521 520.16C402.789 525.534 399.871 530.449 395.981 534.54Z" fill="#3B82F6"/>
<path d="M503.689 390.076C495.08 373.284 481.743 359.156 466.057 348.773C450.32 338.404 432.263 332.09 413.494 330.393C411.034 330.169 408.567 330.038 406.095 330C403.174 329.956 359.229 342.632 344.508 352.982C329.795 363.206 317.692 376.746 309.175 392.509C300.673 408.358 296.491 426.166 297.049 444.143C297.778 462.228 302.819 479.877 311.752 495.618C320.563 511.309 333.074 524.61 348.196 534.364C363.534 544.151 378.941 570.1 397.051 571.016C415.296 571.939 436.105 547.461 452.746 540.029C469.387 532.535 483.773 520.81 494.471 506.024C504.867 491.533 511.592 474.737 514.07 457.076C516.644 438.993 515.444 420.343 509.269 403.06C507.685 398.619 505.821 394.282 503.689 390.076C501.909 386.571 496.693 385.281 493.427 387.386C491.745 388.422 490.527 390.066 490.026 391.977C489.525 393.888 489.779 395.919 490.737 397.647C491.782 399.706 492.754 401.798 493.652 403.925L492.896 402.133C496.296 410.308 498.608 418.894 499.773 427.671L499.505 425.678C500.743 435.2 500.721 444.844 499.438 454.36L499.706 452.366C498.41 461.882 495.87 471.186 492.152 480.04L492.908 478.249C490.995 482.767 488.766 487.144 486.236 491.347C484.954 493.471 483.594 495.545 482.156 497.569C481.524 498.457 480.873 499.33 480.217 500.2C479.36 501.336 481.384 498.717 480.499 499.831C480.348 500.02 480.199 500.211 480.047 500.4C479.593 500.968 479.132 501.53 478.665 502.088C475.547 505.807 472.145 509.279 468.489 512.471C467.578 513.266 466.652 514.043 465.711 514.802C465.242 515.181 464.779 515.575 464.29 515.927C464.309 515.914 465.87 514.728 464.946 515.416C464.655 515.632 464.367 515.852 464.076 516.068C462.136 517.505 460.145 518.869 458.102 520.16C453.398 523.123 448.464 525.702 443.346 527.873L445.138 527.117C436.31 530.833 427.031 533.372 417.541 534.668L419.535 534.401C410.05 535.682 400.436 535.699 390.946 534.451L392.94 534.719C384.315 533.561 375.878 531.28 367.844 527.935L369.636 528.691C364.983 526.726 360.496 524.388 356.22 521.7C354.104 520.366 352.043 518.951 350.036 517.452C349.75 517.239 349.466 517.022 349.181 516.807C348.266 516.116 349.839 517.316 349.852 517.325C349.319 516.943 348.807 516.534 348.317 516.1C347.348 515.311 346.394 514.504 345.455 513.678C341.699 510.371 338.192 506.791 334.962 502.969C334.153 502.013 333.362 501.043 332.588 500.058C332.253 499.632 331.641 498.768 332.992 500.587C332.814 500.348 332.63 500.113 332.451 499.875C332.02 499.303 331.594 498.727 331.175 498.147C329.706 496.115 328.31 494.033 326.987 491.901C323.997 487.075 321.387 482.024 319.182 476.793L319.938 478.584C316.329 469.998 313.861 460.975 312.597 451.747L312.865 453.741C311.725 445.235 311.709 436.616 312.817 428.105L312.549 430.099C313.685 421.858 315.902 413.802 319.144 406.14L318.387 407.931C320.427 403.135 322.832 398.502 325.583 394.075C326.96 391.86 328.419 389.698 329.96 387.591C330.31 387.112 330.665 386.636 331.023 386.163C331.347 385.735 332.238 384.669 330.717 386.551C330.866 386.367 331.01 386.177 331.157 385.991C332.003 384.919 332.869 383.864 333.756 382.826C337.114 378.895 340.751 375.212 344.64 371.805C345.622 370.944 346.621 370.101 347.634 369.276C348.095 368.901 348.559 368.53 349.025 368.163C349.212 368.016 349.401 367.872 349.587 367.724C347.589 369.314 349.032 368.157 349.485 367.817C351.575 366.252 353.72 364.765 355.921 363.356C360.813 360.227 365.96 357.515 371.307 355.248L369.516 356.004C377.276 352.746 411.656 345.055 417.91 345.894L415.916 345.627C425.107 346.91 434.09 349.392 442.636 353.009L440.844 352.253C445.175 354.092 449.383 356.206 453.444 358.582C455.473 359.771 457.462 361.026 459.412 362.345C460.334 362.969 461.247 363.607 462.15 364.26C462.601 364.586 463.05 364.915 463.496 365.248C463.744 365.433 463.99 365.621 464.237 365.806C465.277 366.585 462.806 364.678 463.895 365.54C467.541 368.404 471.004 371.495 474.263 374.793C475.864 376.423 477.409 378.105 478.9 379.838C479.664 380.728 480.413 381.63 481.146 382.546C481.511 383.001 482.751 384.647 481.231 382.63C481.602 383.123 481.978 383.613 482.345 384.109C485.505 388.387 488.312 392.914 490.737 397.647C492.53 401.145 497.724 402.449 500.998 400.338C502.681 399.302 503.9 397.658 504.401 395.747C504.902 393.835 504.647 391.804 503.689 390.076Z" fill="white"/>
<path d="M503.689 390.076C495.08 373.284 481.743 359.156 466.057 348.773C450.32 338.404 432.263 332.09 413.494 330.393C411.034 330.169 408.567 330.038 406.095 330C403.174 329.956 359.229 342.632 344.508 352.982C329.795 363.206 317.692 376.746 309.175 392.509C300.673 408.358 296.491 426.166 297.049 444.143C297.778 462.228 302.819 479.877 311.752 495.618C320.563 511.309 333.074 524.61 348.196 534.364C363.534 544.151 378.941 570.1 397.051 571.016C415.296 571.939 436.105 547.461 452.746 540.029C469.387 532.535 483.773 520.81 494.471 506.024C504.867 491.533 511.592 474.737 514.07 457.076C516.644 438.993 515.444 420.343 509.269 403.06C507.685 398.619 505.821 394.282 503.689 390.076ZM503.689 390.076C501.909 386.571 496.693 385.281 493.427 387.386C491.745 388.422 490.527 390.066 490.026 391.977C489.525 393.888 489.779 395.919 490.737 397.647M503.689 390.076C504.647 391.804 504.902 393.835 504.401 395.747C503.9 397.658 502.681 399.302 500.998 400.338C497.724 402.449 492.53 401.145 490.737 397.647M490.737 397.647C491.782 399.706 492.754 401.798 493.652 403.925L492.896 402.133C496.296 410.308 498.608 418.894 499.773 427.671L499.505 425.678C500.743 435.2 500.721 444.844 499.438 454.36L499.706 452.366C498.41 461.882 495.87 471.186 492.152 480.04L492.908 478.249C490.995 482.767 488.766 487.144 486.236 491.347C484.954 493.471 483.594 495.545 482.156 497.569C481.524 498.457 480.873 499.33 480.217 500.2C479.36 501.336 481.384 498.717 480.499 499.831C480.348 500.02 480.199 500.211 480.047 500.4C479.593 500.968 479.132 501.53 478.665 502.088C475.547 505.807 472.145 509.279 468.489 512.471C467.578 513.266 466.652 514.043 465.711 514.802C465.242 515.181 464.779 515.575 464.29 515.927C464.309 515.914 465.87 514.728 464.946 515.416C464.655 515.632 464.367 515.852 464.076 516.068C462.136 517.505 460.145 518.869 458.102 520.16C453.398 523.123 448.464 525.702 443.346 527.873L445.138 527.117C436.31 530.833 427.031 533.372 417.541 534.668L419.535 534.401C410.05 535.682 400.436 535.699 390.946 534.451L392.94 534.719C384.315 533.561 375.878 531.28 367.844 527.935L369.636 528.691C364.983 526.726 360.496 524.388 356.22 521.7C354.104 520.366 352.043 518.951 350.036 517.452C349.75 517.239 349.466 517.022 349.181 516.807C348.266 516.116 349.839 517.316 349.852 517.325C349.319 516.943 348.807 516.534 348.317 516.1C347.348 515.311 346.394 514.504 345.455 513.678C341.699 510.371 338.192 506.791 334.962 502.969C334.153 502.013 333.362 501.043 332.588 500.058C332.253 499.632 331.641 498.768 332.992 500.587C332.814 500.348 332.63 500.113 332.451 499.875C332.02 499.303 331.594 498.727 331.175 498.147C329.706 496.115 328.31 494.033 326.987 491.901C323.997 487.075 321.387 482.024 319.182 476.793L319.938 478.584C316.329 469.998 313.861 460.975 312.597 451.747L312.865 453.741C311.725 445.235 311.709 436.616 312.817 428.105L312.549 430.099C313.685 421.858 315.902 413.802 319.144 406.14L318.387 407.931C320.427 403.135 322.832 398.502 325.583 394.075C326.96 391.86 328.419 389.698 329.96 387.591C330.31 387.112 330.665 386.636 331.023 386.163C331.347 385.735 332.238 384.669 330.717 386.551C330.866 386.367 331.01 386.177 331.157 385.991C332.003 384.919 332.869 383.864 333.756 382.826C337.114 378.895 340.751 375.212 344.64 371.805C345.622 370.944 346.621 370.101 347.634 369.276C348.095 368.901 348.559 368.53 349.025 368.163C349.212 368.016 349.401 367.872 349.587 367.724C347.589 369.314 349.032 368.157 349.485 367.817C351.575 366.252 353.72 364.765 355.921 363.356C360.813 360.227 365.96 357.515 371.307 355.248L369.516 356.004C377.276 352.746 411.656 345.055 417.91 345.894L415.916 345.627C425.107 346.91 434.09 349.392 442.636 353.009L440.844 352.253C445.175 354.092 449.383 356.206 453.444 358.582C455.473 359.771 457.462 361.026 459.412 362.345C460.334 362.969 461.247 363.607 462.15 364.26C462.601 364.586 463.05 364.915 463.496 365.248C463.744 365.433 463.99 365.621 464.237 365.806C465.277 366.585 462.806 364.678 463.895 365.54C467.541 368.404 471.004 371.495 474.263 374.793C475.864 376.423 477.409 378.105 478.9 379.838C479.664 380.728 480.413 381.63 481.146 382.546C481.511 383.001 482.751 384.647 481.231 382.63C481.602 383.123 481.978 383.613 482.345 384.109C485.505 388.387 488.312 392.914 490.737 397.647Z" stroke="white" stroke-width="12"/>
<rect x="352.502" y="511.952" width="6.08087" height="6.08039" transform="rotate(35.1706 352.502 511.952)" fill="white"/>
<rect x="337.255" y="496.586" width="6.08087" height="6.77039" transform="rotate(50.9107 337.255 496.586)" fill="white"/>
<rect x="461.06" y="510.951" width="7.93904" height="6.11365" transform="rotate(52.6656 461.06 510.951)" fill="white"/>
<rect x="485.688" y="371.517" width="12.306" height="16.3416" transform="rotate(51.0054 485.688 371.517)" fill="white"/>
<rect x="352.901" y="363" width="7.43512" height="7.59308" transform="rotate(51.0054 352.901 363)" fill="white"/>
<rect x="328.439" y="383" width="9.73374" height="7.59308" transform="rotate(35.7731 328.439 383)" fill="white"/>
</g>
<defs>
<filter id="filter0_d_7_2" x="4.12054" y="24.6587" width="851.89" height="76.0696" filterUnits="userSpaceOnUse" color-interpolation-filters="sRGB">
<feFlood flood-opacity="0" result="BackgroundImageFix"/>
<feColorMatrix in="SourceAlpha" type="matrix" values="0 0 0 0 0 0 0 0 0 0 0 0 0 0 0 0 0 0 127 0" result="hardAlpha"/>
<feOffset dy="4"/>
<feGaussianBlur stdDeviation="2"/>
<feComposite in2="hardAlpha" operator="out"/>
<feColorMatrix type="matrix" values="0 0 0 0 0 0 0 0 0 0 0 0 0 0 0 0 0 0 0.25 0"/>
<feBlend mode="normal" in2="BackgroundImageFix" result="effect1_dropShadow_7_2"/>
<feBlend mode="normal" in="SourceGraphic" in2="effect1_dropShadow_7_2" result="shape"/>
</filter>
<clipPath id="clip0_7_2">
<rect width="860.131" height="571.148" fill="white"/>
</clipPath>
</defs>
</svg>
