<svg width="861" height="572" viewBox="0 0 861 572" fill="none" xmlns="http://www.w3.org/2000/svg">
<g clip-path="url(#clip0_3_2)">
<path d="M435.735 160.527C428.066 147.843 418.978 134.299 404.746 130.158C388.264 125.361 371.333 134.889 356.971 144.292C314.022 172.412 272.661 202.886 233.078 235.575L233.121 236.068C263.938 233.942 294.755 231.817 325.572 229.692C347.837 228.157 370.868 226.409 390.544 215.876C398.011 211.88 405.289 206.541 413.75 206.169C424.261 205.706 433.427 213.048 440.63 220.718C483.237 266.089 495.567 335.472 543.368 375.334C513.226 300.999 477.236 229.171 435.735 160.527Z" fill="#F2F2F2"/>
<path d="M697.636 545.355C692.925 539.406 690.999 538.012 686.352 532.008C648.509 483.064 612.94 432.466 579.644 380.215C557.028 344.729 535.534 308.561 515.161 271.711C505.462 254.192 496.029 236.536 486.861 218.742C479.748 204.946 472.793 191.066 465.997 177.104C464.053 173.117 462.165 169.111 460.286 165.095C455.858 155.653 451.512 146.165 446.846 136.851C441.529 126.235 435.057 115.106 425.294 107.974C420.85 104.595 415.537 102.55 409.975 102.079C402.027 101.566 394.693 104.848 387.799 108.432C337.361 134.733 290.14 167.708 247.43 205.23C204.61 242.836 166.336 285.322 133.388 331.821C132.38 333.26 129.996 331.885 131.014 330.437C135.02 324.772 139.106 319.167 143.271 313.624C195.059 244.746 258.56 185.515 330.87 138.638C343.036 130.755 355.43 123.24 368.053 116.096C374.415 112.493 380.805 108.936 387.304 105.599C393.676 102.327 400.441 99.3839 407.72 99.2739C432.49 98.8889 445.315 126.941 454.125 145.816C456.894 151.757 459.696 157.679 462.531 163.583C473.248 185.997 484.377 208.206 495.919 230.211C503.042 243.797 510.321 257.303 517.756 270.73C540.894 312.542 565.486 353.508 591.534 393.627C626.04 446.77 660.271 493.716 699.58 543.412C700.662 544.787 698.728 546.749 697.636 545.355Z" fill="#E4E4E4"/>
<path d="M244.982 191.378C243.543 189.774 242.113 188.169 240.664 186.565C229.242 173.933 216.985 161.447 201.3 154.205C193.821 150.642 185.656 148.75 177.373 148.658C168.811 148.686 160.441 150.932 152.53 154.076C148.789 155.57 145.131 157.266 141.529 159.072C137.413 161.144 133.37 163.354 129.346 165.581C121.792 169.761 114.335 174.125 106.977 178.672C92.337 187.72 78.1551 197.459 64.4318 207.888C57.3177 213.297 50.3505 218.883 43.53 224.646C37.1863 230 30.9709 235.497 24.8839 241.138C23.5822 242.339 21.6386 240.396 22.9403 239.195C24.5445 237.7 26.1672 236.215 27.7898 234.749C32.3735 230.605 37.0305 226.541 41.761 222.556C50.3872 215.277 59.2367 208.279 68.3095 201.563C82.4182 191.112 97.0125 181.37 112.092 172.337C119.628 167.827 127.268 163.506 135.011 159.375C137.349 158.128 139.714 156.909 142.106 155.754C147.535 153.015 153.176 150.719 158.974 148.887C167.187 146.231 175.877 145.377 184.45 146.385C192.728 147.589 200.703 150.348 207.955 154.516C223.356 163.124 235.301 176.435 246.925 189.425C248.099 190.745 246.164 192.698 244.982 191.378Z" fill="#E4E4E4"/>
<path d="M560.542 322.285L597.447 308.787L615.77 302.085C621.738 299.902 627.691 297.418 633.86 295.855C639.221 294.323 644.913 294.396 650.234 296.063C654.978 297.819 659.321 300.512 663.005 303.98C666.768 307.445 670.269 311.184 673.48 315.166C677.469 319.961 681.399 324.805 685.347 329.634C701.641 349.561 717.829 369.575 733.91 389.675C749.991 409.775 765.964 429.96 781.83 450.231C797.735 470.551 813.53 490.956 829.216 511.447C831.137 513.957 833.057 516.468 834.975 518.981C836.035 520.369 838.425 519 837.35 517.593C821.548 496.896 805.637 476.285 789.615 455.758C773.554 435.182 757.382 414.693 741.099 394.292C724.816 373.891 708.423 353.579 691.92 333.355C687.809 328.316 683.691 323.283 679.566 318.256C676.086 314.015 672.646 309.729 668.829 305.782C661.824 298.537 653.072 292.134 642.595 291.96C636.435 291.858 630.474 293.813 624.751 295.883C618.581 298.115 612.426 300.389 606.265 302.642L569.102 316.235L559.811 319.633C558.163 320.236 558.875 322.895 560.542 322.285Z" fill="#E4E4E4"/>
<path d="M196.443 170.1C177.689 160.461 153.672 162.349 136.438 174.391C169.31 180.063 201.822 187.651 233.809 197.117C220.526 189.333 210.136 177.137 196.443 170.1Z" fill="#F2F2F2"/>
<path d="M136.253 174.358L132.643 177.293C133.864 176.266 135.134 175.303 136.438 174.391C136.376 174.381 136.315 174.369 136.253 174.358Z" fill="#F2F2F2"/>
<path d="M649.249 102C677.415 102 700.249 79.1665 700.249 51C700.249 22.8335 677.415 0 649.249 0C621.082 0 598.249 22.8335 598.249 51C598.249 79.1665 621.082 102 649.249 102Z" fill="#3B82F6"/>
<path d="M741.284 11.8704C716.567 8.52949 688.349 21.8891 681.943 45.994C680.328 41.7081 677.393 38.0465 673.562 35.538C669.73 33.0295 665.2 31.8041 660.626 32.0388C656.052 32.2735 651.671 33.9562 648.116 36.8437C644.562 39.7312 642.017 43.6741 640.849 48.1027L643.679 50.1293C696.647 61.5836 751.476 61.3357 804.338 49.403C787.145 31.334 766.001 15.2113 741.284 11.8704Z" fill="#F0F0F0"/>
<path d="M635.284 79.8704C610.567 76.5295 582.349 89.8891 575.943 113.994C574.328 109.708 571.393 106.046 567.562 103.538C563.73 101.03 559.2 99.8041 554.626 100.039C550.052 100.274 545.671 101.956 542.116 104.844C538.562 107.731 536.017 111.674 534.849 116.103L537.679 118.129C590.647 129.584 645.476 129.336 698.338 117.403C681.145 99.334 660.001 83.2113 635.284 79.8704Z" fill="#F0F0F0"/>
<path d="M851.011 92.7283C850.909 92.7285 850.807 92.7127 850.709 92.6814C586.303 9.06326 353.265 19.9978 204.33 43.8953C184.061 47.1463 163.738 50.9011 143.926 55.0564C138.868 56.116 133.62 57.2517 128.329 58.4343C122.01 59.8416 115.775 61.2908 109.797 62.74C107.215 63.3513 104.683 63.9676 102.202 64.5886C98.4438 65.5164 94.6303 66.4832 90.5424 67.5456C85.9746 68.7234 81.3334 69.9587 76.7451 71.2175C76.7283 71.2234 76.7112 71.2283 76.6938 71.2322L76.6943 71.2332C71.5117 72.6482 66.3564 74.1043 61.371 75.5584C58.6728 76.3377 56.0673 77.1062 53.5717 77.865C53.2929 77.9422 53.0459 78.0164 52.7954 78.0925L52.2592 78.2556C51.9487 78.3503 51.642 78.4431 51.3354 78.531L51.3159 78.5369L51.3163 78.5379L50.5048 78.7899C49.5371 79.0829 48.5927 79.369 47.664 79.6541C23.1191 87.2205 9.62592 92.6034 9.49262 92.6561C9.37072 92.7049 9.2404 92.7293 9.10909 92.7278C8.97777 92.7263 8.84804 92.6989 8.7273 92.6473C8.60656 92.5956 8.49716 92.5208 8.40537 92.4268C8.31358 92.3329 8.24119 92.2218 8.19233 92.0999C8.14347 91.978 8.1191 91.8477 8.12061 91.7164C8.12212 91.5851 8.14947 91.4554 8.20112 91.3346C8.25276 91.2139 8.32767 91.1045 8.42159 91.0127C8.51551 90.9209 8.62658 90.8485 8.74848 90.7996C8.88276 90.7469 22.4419 85.3368 47.0761 77.742C48.0083 77.4559 48.955 77.1698 49.9257 76.8758L50.6796 76.6414C50.7055 76.6317 50.7314 76.6239 50.7578 76.616C51.0629 76.5291 51.3676 76.4364 51.6772 76.3426L52.2143 76.1795C52.4819 76.0985 52.7455 76.0184 53.0156 75.9442C55.4941 75.1903 58.1083 74.4198 60.8134 73.6375C65.8007 72.1825 70.9609 70.7264 76.1474 69.3094C76.1635 69.3035 76.1801 69.2996 76.1963 69.2948C80.8007 68.0321 85.4589 66.7908 90.0415 65.6092C94.1357 64.5457 97.9565 63.577 101.721 62.6473C104.213 62.0272 106.749 61.4096 109.331 60.7947C115.316 59.3436 121.563 57.8924 127.894 56.4822C133.193 55.2986 138.449 54.16 143.516 53.0994C163.359 48.9373 183.713 45.1766 204.013 41.9207C353.162 17.9891 586.533 7.03687 851.312 90.7751C851.54 90.847 851.734 90.998 851.86 91.2008C851.986 91.4035 852.036 91.6447 851.999 91.8807C851.963 92.1167 851.843 92.3319 851.662 92.4873C851.481 92.6428 851.25 92.7283 851.011 92.7283Z" fill="#CCCCCC"/>
<mask id="path-11-outside-1_3_2" maskUnits="userSpaceOnUse" x="66.5471" y="308.311" width="203" height="164" fill="black">
<rect fill="white" x="66.5471" y="308.311" width="203" height="164"/>
<path d="M262.989 419.84C262.642 418.827 262.06 417.912 261.289 417.17C261.004 416.906 260.696 416.668 260.369 416.46C257.759 414.72 253.859 414.33 251.379 416.46C251.129 416.677 250.898 416.914 250.689 417.17C249.949 418.08 249.189 418.97 248.409 419.84C247.129 421.3 245.819 422.71 244.449 424.08C244.059 424.46 243.669 424.85 243.269 425.23C243.039 425.46 242.809 425.68 242.579 425.9C241.699 426.74 240.799 427.55 239.889 428.35C239.409 428.78 238.929 429.2 238.439 429.61C237.709 430.22 236.979 430.83 236.239 431.42C236.169 431.47 236.099 431.52 236.029 431.58C236.009 431.59 235.999 431.61 235.979 431.62C235.969 431.62 235.959 431.62 235.949 431.64C235.922 431.651 235.898 431.668 235.879 431.69C235.659 431.84 235.509 431.94 235.399 432.03C235.439 432.01 235.479 431.98 235.519 431.96C235.339 432.1 235.149 432.24 234.969 432.38C233.219 433.67 231.429 434.91 229.599 436.07C225.071 438.968 220.315 441.493 215.379 443.62C215.049 443.75 214.709 443.89 214.369 444.02C201.443 449.315 187.422 451.382 173.519 450.04C172.099 449.93 170.679 449.78 169.259 449.59C167.619 449.35 165.989 449.06 164.369 448.73C158.201 447.499 152.167 445.678 146.349 443.29C139.071 439.957 132.149 435.897 125.689 431.17C124.689 430.46 123.679 429.75 122.669 429.06C123.819 426.24 124.949 423.42 126.049 420.58C126.599 419.21 127.129 417.84 127.649 416.46C131.739 405.83 135.579 395.1 139.259 384.33C142.979 373.42 146.489 362.447 149.789 351.41C150.129 350.29 150.459 349.17 150.779 348.05C152.509 342.22 154.169 336.377 155.759 330.52C155.909 329.95 156.069 329.39 156.209 328.82C156.669 327.14 157.119 325.46 157.559 323.78C158.559 319.99 156.299 315.46 152.319 314.55C150.402 314.059 148.37 314.33 146.65 315.308C144.931 316.285 143.657 317.892 143.099 319.79C142.669 321.41 142.239 323.02 141.799 324.64C139.689 332.47 137.469 340.273 135.139 348.05C134.799 349.17 134.459 350.29 134.119 351.41C128.979 368.35 123.335 385.12 117.189 401.72C116.449 403.73 115.699 405.733 114.939 407.73C114.569 408.71 114.199 409.69 113.819 410.67C113.089 412.6 112.339 414.53 111.589 416.46C111.159 417.59 110.719 418.72 110.279 419.84C109.989 420.55 109.709 421.26 109.429 421.96C106.578 420.936 103.624 420.225 100.619 419.84L100.139 419.78C97.8092 419.5 95.4532 419.52 93.1288 419.84C89.6498 420.246 86.3025 421.411 83.3235 423.253C80.3444 425.095 77.8064 427.569 75.8888 430.5C71.1188 438.01 71.1788 448.75 77.8688 455.13C84.7588 461.7 95.1888 461.65 103.299 457.54C107.597 455.215 111.22 451.818 113.819 447.68C114.814 446.18 115.729 444.628 116.559 443.03C116.769 443.17 116.979 443.31 117.189 443.46C117.989 444.02 118.789 444.59 119.579 445.15C124.182 448.485 129.033 451.463 134.089 454.06C144.961 459.465 156.664 463.004 168.709 464.53C168.979 464.56 169.239 464.6 169.509 464.63C170.839 464.8 172.179 464.93 173.519 465.04C192.741 466.489 211.987 462.555 229.099 453.68C230.549 452.93 231.985 452.143 233.409 451.32C235.619 450.04 237.779 448.68 239.889 447.24C241.039 446.46 242.159 445.67 243.269 444.84C248.119 441.267 252.641 437.268 256.779 432.89C258.349 431.24 259.852 429.537 261.289 427.78C262.647 426.343 263.43 424.457 263.489 422.48C263.481 421.577 263.312 420.683 262.989 419.84ZM97.3988 443.66C97.6088 443.51 97.8188 443.35 98.0188 443.19C97.9588 443.34 97.6687 443.51 97.3988 443.66ZM100.609 440.43C100.379 440.69 100.169 440.95 99.9388 441.21C99.239 441.993 98.4873 442.728 97.6888 443.41C97.5788 443.51 97.4588 443.61 97.3388 443.7C97.3375 443.7 97.3361 443.7 97.3349 443.701C97.3337 443.701 97.3326 443.702 97.3316 443.703C97.3307 443.704 97.33 443.705 97.3295 443.706C97.329 443.707 97.3287 443.709 97.3288 443.71C97.1843 443.775 97.044 443.848 96.9087 443.93C96.4787 444.19 96.0387 444.43 95.5888 444.65C94.7077 444.974 93.8013 445.225 92.8788 445.4C92.1699 445.452 91.4585 445.458 90.7488 445.42H90.7288C90.239 445.311 89.755 445.178 89.2788 445.02C89.0388 444.9 88.8088 444.76 88.5788 444.62C88.4888 444.54 88.4087 444.46 88.3588 444.41C88.2611 444.321 88.1708 444.224 88.0888 444.12C88.0889 444.119 88.0886 444.117 88.0881 444.116C88.0876 444.115 88.0869 444.114 88.086 444.113C88.085 444.112 88.0839 444.111 88.0827 444.111C88.0814 444.11 88.0801 444.11 88.0788 444.11C87.9688 443.91 87.8488 443.71 87.7388 443.51C87.7331 443.505 87.7296 443.498 87.7288 443.49C87.6488 443.24 87.5788 442.98 87.5188 442.72C87.4971 442.263 87.5005 441.806 87.5288 441.35C87.663 440.711 87.8435 440.083 88.0688 439.47C88.2713 439.036 88.5018 438.615 88.7588 438.21C88.7788 438.17 88.8788 438.01 88.9888 437.83C88.9988 437.82 88.9988 437.82 88.9988 437.81C89.1488 437.64 89.2988 437.46 89.4588 437.3C89.7288 437 90.0188 436.74 90.3088 436.47C90.8728 436.101 91.4571 435.764 92.0588 435.46C93.0135 435.121 93.9931 434.857 94.9888 434.67C96.4571 434.553 97.9329 434.567 99.3988 434.71C100.787 434.951 102.157 435.288 103.499 435.72C102.686 437.298 101.76 438.815 100.729 440.26C100.689 440.32 100.649 440.38 100.609 440.43ZM89.4888 437.14C89.4007 437.281 89.2967 437.412 89.1788 437.53C89.2581 437.383 89.3631 437.251 89.4888 437.14Z"/>
</mask>
<path d="M262.989 419.84C262.642 418.827 262.06 417.912 261.289 417.17C261.004 416.906 260.696 416.668 260.369 416.46C257.759 414.72 253.859 414.33 251.379 416.46C251.129 416.677 250.898 416.914 250.689 417.17C249.949 418.08 249.189 418.97 248.409 419.84C247.129 421.3 245.819 422.71 244.449 424.08C244.059 424.46 243.669 424.85 243.269 425.23C243.039 425.46 242.809 425.68 242.579 425.9C241.699 426.74 240.799 427.55 239.889 428.35C239.409 428.78 238.929 429.2 238.439 429.61C237.709 430.22 236.979 430.83 236.239 431.42C236.169 431.47 236.099 431.52 236.029 431.58C236.009 431.59 235.999 431.61 235.979 431.62C235.969 431.62 235.959 431.62 235.949 431.64C235.922 431.651 235.898 431.668 235.879 431.69C235.659 431.84 235.509 431.94 235.399 432.03C235.439 432.01 235.479 431.98 235.519 431.96C235.339 432.1 235.149 432.24 234.969 432.38C233.219 433.67 231.429 434.91 229.599 436.07C225.071 438.968 220.315 441.493 215.379 443.62C215.049 443.75 214.709 443.89 214.369 444.02C201.443 449.315 187.422 451.382 173.519 450.04C172.099 449.93 170.679 449.78 169.259 449.59C167.619 449.35 165.989 449.06 164.369 448.73C158.201 447.499 152.167 445.678 146.349 443.29C139.071 439.957 132.149 435.897 125.689 431.17C124.689 430.46 123.679 429.75 122.669 429.06C123.819 426.24 124.949 423.42 126.049 420.58C126.599 419.21 127.129 417.84 127.649 416.46C131.739 405.83 135.579 395.1 139.259 384.33C142.979 373.42 146.489 362.447 149.789 351.41C150.129 350.29 150.459 349.17 150.779 348.05C152.509 342.22 154.169 336.377 155.759 330.52C155.909 329.95 156.069 329.39 156.209 328.82C156.669 327.14 157.119 325.46 157.559 323.78C158.559 319.99 156.299 315.46 152.319 314.55C150.402 314.059 148.37 314.33 146.65 315.308C144.931 316.285 143.657 317.892 143.099 319.79C142.669 321.41 142.239 323.02 141.799 324.64C139.689 332.47 137.469 340.273 135.139 348.05C134.799 349.17 134.459 350.29 134.119 351.41C128.979 368.35 123.335 385.12 117.189 401.72C116.449 403.73 115.699 405.733 114.939 407.73C114.569 408.71 114.199 409.69 113.819 410.67C113.089 412.6 112.339 414.53 111.589 416.46C111.159 417.59 110.719 418.72 110.279 419.84C109.989 420.55 109.709 421.26 109.429 421.96C106.578 420.936 103.624 420.225 100.619 419.84L100.139 419.78C97.8092 419.5 95.4532 419.52 93.1288 419.84C89.6498 420.246 86.3025 421.411 83.3235 423.253C80.3444 425.095 77.8064 427.569 75.8888 430.5C71.1188 438.01 71.1788 448.75 77.8688 455.13C84.7588 461.7 95.1888 461.65 103.299 457.54C107.597 455.215 111.22 451.818 113.819 447.68C114.814 446.18 115.729 444.628 116.559 443.03C116.769 443.17 116.979 443.31 117.189 443.46C117.989 444.02 118.789 444.59 119.579 445.15C124.182 448.485 129.033 451.463 134.089 454.06C144.961 459.465 156.664 463.004 168.709 464.53C168.979 464.56 169.239 464.6 169.509 464.63C170.839 464.8 172.179 464.93 173.519 465.04C192.741 466.489 211.987 462.555 229.099 453.68C230.549 452.93 231.985 452.143 233.409 451.32C235.619 450.04 237.779 448.68 239.889 447.24C241.039 446.46 242.159 445.67 243.269 444.84C248.119 441.267 252.641 437.268 256.779 432.89C258.349 431.24 259.852 429.537 261.289 427.78C262.647 426.343 263.43 424.457 263.489 422.48C263.481 421.577 263.312 420.683 262.989 419.84ZM97.3988 443.66C97.6088 443.51 97.8188 443.35 98.0188 443.19C97.9588 443.34 97.6687 443.51 97.3988 443.66ZM100.609 440.43C100.379 440.69 100.169 440.95 99.9388 441.21C99.239 441.993 98.4873 442.728 97.6888 443.41C97.5788 443.51 97.4588 443.61 97.3388 443.7C97.3375 443.7 97.3361 443.7 97.3349 443.701C97.3337 443.701 97.3326 443.702 97.3316 443.703C97.3307 443.704 97.33 443.705 97.3295 443.706C97.329 443.707 97.3287 443.709 97.3288 443.71C97.1843 443.775 97.044 443.848 96.9087 443.93C96.4787 444.19 96.0387 444.43 95.5888 444.65C94.7077 444.974 93.8013 445.225 92.8788 445.4C92.1699 445.452 91.4585 445.458 90.7488 445.42H90.7288C90.239 445.311 89.755 445.178 89.2788 445.02C89.0388 444.9 88.8088 444.76 88.5788 444.62C88.4888 444.54 88.4087 444.46 88.3588 444.41C88.2611 444.321 88.1708 444.224 88.0888 444.12C88.0889 444.119 88.0886 444.117 88.0881 444.116C88.0876 444.115 88.0869 444.114 88.086 444.113C88.085 444.112 88.0839 444.111 88.0827 444.111C88.0814 444.11 88.0801 444.11 88.0788 444.11C87.9688 443.91 87.8488 443.71 87.7388 443.51C87.7331 443.505 87.7296 443.498 87.7288 443.49C87.6488 443.24 87.5788 442.98 87.5188 442.72C87.4971 442.263 87.5005 441.806 87.5288 441.35C87.663 440.711 87.8435 440.083 88.0688 439.47C88.2713 439.036 88.5018 438.615 88.7588 438.21C88.7788 438.17 88.8788 438.01 88.9888 437.83C88.9988 437.82 88.9988 437.82 88.9988 437.81C89.1488 437.64 89.2988 437.46 89.4588 437.3C89.7288 437 90.0188 436.74 90.3088 436.47C90.8728 436.101 91.4571 435.764 92.0588 435.46C93.0135 435.121 93.9931 434.857 94.9888 434.67C96.4571 434.553 97.9329 434.567 99.3988 434.71C100.787 434.951 102.157 435.288 103.499 435.72C102.686 437.298 101.76 438.815 100.729 440.26C100.689 440.32 100.649 440.38 100.609 440.43ZM89.4888 437.14C89.4007 437.281 89.2967 437.412 89.1788 437.53C89.2581 437.383 89.3631 437.251 89.4888 437.14Z" fill="#F2F2F2"/>
<path d="M262.989 419.84C262.642 418.827 262.06 417.912 261.289 417.17C261.004 416.906 260.696 416.668 260.369 416.46C257.759 414.72 253.859 414.33 251.379 416.46C251.129 416.677 250.898 416.914 250.689 417.17C249.949 418.08 249.189 418.97 248.409 419.84C247.129 421.3 245.819 422.71 244.449 424.08C244.059 424.46 243.669 424.85 243.269 425.23C243.039 425.46 242.809 425.68 242.579 425.9C241.699 426.74 240.799 427.55 239.889 428.35C239.409 428.78 238.929 429.2 238.439 429.61C237.709 430.22 236.979 430.83 236.239 431.42C236.169 431.47 236.099 431.52 236.029 431.58C236.009 431.59 235.999 431.61 235.979 431.62C235.969 431.62 235.959 431.62 235.949 431.64C235.922 431.651 235.898 431.668 235.879 431.69C235.659 431.84 235.509 431.94 235.399 432.03C235.439 432.01 235.479 431.98 235.519 431.96C235.339 432.1 235.149 432.24 234.969 432.38C233.219 433.67 231.429 434.91 229.599 436.07C225.071 438.968 220.315 441.493 215.379 443.62C215.049 443.75 214.709 443.89 214.369 444.02C201.443 449.315 187.422 451.382 173.519 450.04C172.099 449.93 170.679 449.78 169.259 449.59C167.619 449.35 165.989 449.06 164.369 448.73C158.201 447.499 152.167 445.678 146.349 443.29C139.071 439.957 132.149 435.897 125.689 431.17C124.689 430.46 123.679 429.75 122.669 429.06C123.819 426.24 124.949 423.42 126.049 420.58C126.599 419.21 127.129 417.84 127.649 416.46C131.739 405.83 135.579 395.1 139.259 384.33C142.979 373.42 146.489 362.447 149.789 351.41C150.129 350.29 150.459 349.17 150.779 348.05C152.509 342.22 154.169 336.377 155.759 330.52C155.909 329.95 156.069 329.39 156.209 328.82C156.669 327.14 157.119 325.46 157.559 323.78C158.559 319.99 156.299 315.46 152.319 314.55C150.402 314.059 148.37 314.33 146.65 315.308C144.931 316.285 143.657 317.892 143.099 319.79C142.669 321.41 142.239 323.02 141.799 324.64C139.689 332.47 137.469 340.273 135.139 348.05C134.799 349.17 134.459 350.29 134.119 351.41C128.979 368.35 123.335 385.12 117.189 401.72C116.449 403.73 115.699 405.733 114.939 407.73C114.569 408.71 114.199 409.69 113.819 410.67C113.089 412.6 112.339 414.53 111.589 416.46C111.159 417.59 110.719 418.72 110.279 419.84C109.989 420.55 109.709 421.26 109.429 421.96C106.578 420.936 103.624 420.225 100.619 419.84L100.139 419.78C97.8092 419.5 95.4532 419.52 93.1288 419.84C89.6498 420.246 86.3025 421.411 83.3235 423.253C80.3444 425.095 77.8064 427.569 75.8888 430.5C71.1188 438.01 71.1788 448.75 77.8688 455.13C84.7588 461.7 95.1888 461.65 103.299 457.54C107.597 455.215 111.22 451.818 113.819 447.68C114.814 446.18 115.729 444.628 116.559 443.03C116.769 443.17 116.979 443.31 117.189 443.46C117.989 444.02 118.789 444.59 119.579 445.15C124.182 448.485 129.033 451.463 134.089 454.06C144.961 459.465 156.664 463.004 168.709 464.53C168.979 464.56 169.239 464.6 169.509 464.63C170.839 464.8 172.179 464.93 173.519 465.04C192.741 466.489 211.987 462.555 229.099 453.68C230.549 452.93 231.985 452.143 233.409 451.32C235.619 450.04 237.779 448.68 239.889 447.24C241.039 446.46 242.159 445.67 243.269 444.84C248.119 441.267 252.641 437.268 256.779 432.89C258.349 431.24 259.852 429.537 261.289 427.78C262.647 426.343 263.43 424.457 263.489 422.48C263.481 421.577 263.312 420.683 262.989 419.84ZM97.3988 443.66C97.6088 443.51 97.8188 443.35 98.0188 443.19C97.9588 443.34 97.6687 443.51 97.3988 443.66ZM100.609 440.43C100.379 440.69 100.169 440.95 99.9388 441.21C99.239 441.993 98.4873 442.728 97.6888 443.41C97.5788 443.51 97.4588 443.61 97.3388 443.7C97.3375 443.7 97.3361 443.7 97.3349 443.701C97.3337 443.701 97.3326 443.702 97.3316 443.703C97.3307 443.704 97.33 443.705 97.3295 443.706C97.329 443.707 97.3287 443.709 97.3288 443.71C97.1843 443.775 97.044 443.848 96.9087 443.93C96.4787 444.19 96.0387 444.43 95.5888 444.65C94.7077 444.974 93.8013 445.225 92.8788 445.4C92.1699 445.452 91.4585 445.458 90.7488 445.42H90.7288C90.239 445.311 89.755 445.178 89.2788 445.02C89.0388 444.9 88.8088 444.76 88.5788 444.62C88.4888 444.54 88.4087 444.46 88.3588 444.41C88.2611 444.321 88.1708 444.224 88.0888 444.12C88.0889 444.119 88.0886 444.117 88.0881 444.116C88.0876 444.115 88.0869 444.114 88.086 444.113C88.085 444.112 88.0839 444.111 88.0827 444.111C88.0814 444.11 88.0801 444.11 88.0788 444.11C87.9688 443.91 87.8488 443.71 87.7388 443.51C87.7331 443.505 87.7296 443.498 87.7288 443.49C87.6488 443.24 87.5788 442.98 87.5188 442.72C87.4971 442.263 87.5005 441.806 87.5288 441.35C87.663 440.711 87.8435 440.083 88.0688 439.47C88.2713 439.036 88.5018 438.615 88.7588 438.21C88.7788 438.17 88.8788 438.01 88.9888 437.83C88.9988 437.82 88.9988 437.82 88.9988 437.81C89.1488 437.64 89.2988 437.46 89.4588 437.3C89.7288 437 90.0188 436.74 90.3088 436.47C90.8728 436.101 91.4571 435.764 92.0588 435.46C93.0135 435.121 93.9931 434.857 94.9888 434.67C96.4571 434.553 97.9329 434.567 99.3988 434.71C100.787 434.951 102.157 435.288 103.499 435.72C102.686 437.298 101.76 438.815 100.729 440.26C100.689 440.32 100.649 440.38 100.609 440.43ZM89.4888 437.14C89.4007 437.281 89.2967 437.412 89.1788 437.53C89.2581 437.383 89.3631 437.251 89.4888 437.14Z" stroke="#F2F2F2" stroke-width="12" mask="url(#path-11-outside-1_3_2)"/>
<path d="M235.929 317.741L235.928 317.796L235.658 327.212C235.658 327.213 235.658 327.213 235.658 327.214C235.468 334.184 235.271 341.157 235.068 348.134C234.858 355.984 234.638 363.831 234.408 371.675C234.298 375.725 234.184 379.776 234.068 383.826C233.758 394.735 233.451 405.64 233.148 416.542C233.133 417.113 233.115 417.681 233.097 418.24L233.097 418.243C233.08 418.807 233.063 419.363 233.048 419.92L233.048 419.923L232.598 436.153L232.598 436.157C232.428 442.025 232.261 447.893 232.098 453.762L235.929 317.741ZM235.929 317.741L235.929 317.686M235.929 317.741L235.929 317.686M235.929 317.686C235.906 314.914 234.795 312.263 232.836 310.303C230.876 308.343 228.224 307.232 225.453 307.21L225.412 307.21L225.371 307.211C222.618 307.263 219.993 308.381 218.046 310.327C216.103 312.27 214.987 314.889 214.93 317.636C214.885 319.175 214.843 320.711 214.8 322.244L214.8 322.257C214.757 323.8 214.715 325.34 214.67 326.883L214.67 326.885L214.07 347.965L214.07 347.969C213.903 354.133 213.73 360.295 213.55 366.452L213.55 366.456L212.23 413.409L212.23 413.416L212.228 413.496C212.199 414.451 212.169 415.415 212.15 416.39C212.135 416.944 212.118 417.496 212.1 418.057L212.1 418.06C212.083 418.62 212.065 419.187 212.05 419.759C211.827 427.817 211.6 435.876 211.37 443.934L211.37 443.936L210.92 459.994C210.92 459.995 210.92 459.995 210.92 459.995C210.92 459.995 210.92 459.996 210.92 459.996C210.457 476.236 210 492.476 209.55 508.716C209.037 526.676 208.53 544.636 208.03 562.597L208.028 562.65L208.029 562.704C208.051 565.476 209.162 568.127 211.122 570.087C213.082 572.047 215.733 573.158 218.505 573.18L218.546 573.18M235.929 317.686L218.546 573.18M218.546 573.18L218.586 573.179M218.546 573.18L218.586 573.179M218.586 573.179C221.339 573.127 223.965 572.009 225.911 570.063C227.855 568.119 228.971 565.5 229.028 562.752C229.028 562.748 229.028 562.743 229.028 562.738L231.728 466.976C231.728 466.976 231.728 466.976 231.728 466.975M218.586 573.179L231.728 466.975M231.728 466.975C231.728 466.975 231.728 466.975 231.728 466.974M231.728 466.975L231.728 466.974M231.728 466.974C231.854 462.567 231.978 458.164 232.098 453.763L231.728 466.974Z" fill="#F2F2F2" stroke="#F2F2F2" stroke-width="6"/>
<path d="M609.936 418.247C607.588 417.577 605.185 417.094 602.751 416.805L602.748 416.805C592.367 415.583 581.529 419.608 575.62 428.894C570.259 437.32 570.101 449.712 578.054 457.301C586.132 465.009 598.04 464.708 606.916 460.212C612.596 457.335 616.709 452.537 619.81 447.393C619.904 447.459 619.998 447.526 620.093 447.593C624.814 451.01 629.789 454.064 634.973 456.727L634.991 456.736L635.009 456.745C646.182 462.301 658.21 465.939 670.589 467.509L670.602 467.51C688.376 469.688 706.412 467.367 723.056 460.76C739.673 454.164 754.37 443.507 765.804 429.765C767.622 427.801 768.669 425.243 768.747 422.566L768.749 422.511L768.749 422.456C768.729 419.689 767.631 417.039 765.688 415.068L765.636 415.015L765.581 414.964C763.659 413.2 760.991 412.135 758.349 412.015C755.666 411.894 752.691 412.754 750.626 415.271L750.624 415.273C748.186 418.251 745.564 421.073 742.774 423.725C742.293 424.181 741.807 424.633 741.316 425.079C740.258 425.847 738.901 426.996 737.893 427.878C737.52 428.204 737.179 428.507 736.899 428.759C736.708 428.919 736.526 429.071 736.359 429.211C736.087 429.438 735.856 429.629 735.683 429.772C735.487 429.933 735.426 429.98 735.443 429.969C729.628 434.255 723.35 437.872 716.728 440.753C709.77 443.596 702.497 445.593 695.063 446.701C687.497 447.61 679.848 447.602 672.284 446.676C664.731 445.569 657.337 443.572 650.254 440.727C643.012 437.468 636.132 433.455 629.73 428.753C629.362 428.481 628.992 428.211 628.62 427.944C634.291 413.878 639.469 399.608 644.355 385.3C650.439 367.483 655.957 349.484 660.909 331.306L660.909 331.306C661.522 329.055 662.126 326.801 662.721 324.545C664.085 319.384 661.143 312.997 655.29 311.637C652.632 310.964 649.815 311.344 647.43 312.699C645.032 314.06 643.257 316.299 642.479 318.945L642.467 318.985L642.456 319.025C634.618 348.705 625.25 377.959 614.39 406.671M609.936 418.247C611.446 414.403 612.925 410.542 614.39 406.671M609.936 418.247C610.899 418.522 611.854 418.829 612.798 419.167C614.29 415.365 615.751 411.55 617.196 407.732M614.39 406.671L617.196 407.732M614.39 406.671L617.196 407.732M617.196 407.732C628.093 378.924 637.492 349.571 645.357 319.791" fill="#F2F2F2" stroke="#F2F2F2" stroke-width="6"/>
<path d="M708.287 562.596L708.286 562.651L708.286 562.706C708.31 565.477 709.421 568.127 711.38 570.086C713.339 572.046 715.99 573.157 718.76 573.18L718.802 573.181L718.844 573.18C721.596 573.127 724.222 572.01 726.168 570.063C728.112 568.12 729.228 565.5 729.285 562.753C729.285 562.748 729.285 562.743 729.285 562.739L731.984 466.972L734.67 371.678L736.188 317.794L736.19 317.739L736.189 317.684C736.166 314.913 735.055 312.263 733.095 310.304C731.136 308.344 728.486 307.233 725.715 307.21L725.673 307.209L725.631 307.21C722.879 307.263 720.254 308.381 718.307 310.327C716.364 312.271 715.247 314.89 715.19 317.637C715.19 317.642 715.19 317.647 715.19 317.652L712.491 413.418L709.806 508.712L708.287 562.596Z" fill="#F2F2F2" stroke="#F2F2F2" stroke-width="6"/>
<path d="M445.369 504.14C442.437 517.219 435.414 529.023 425.319 537.84C424.579 538.48 423.839 539.1 423.069 539.71C421.199 539.88 419.342 540.053 417.499 540.23C415.969 540.37 414.459 540.52 412.959 540.66L412.689 540.69L412.499 539.05L411.739 532.41C408.79 527.597 406.963 522.182 406.392 516.566C405.821 510.951 406.52 505.278 408.439 499.97C411.079 492.85 415.859 486.56 420.559 480.32C427.049 471.7 433.359 463.18 433.589 452.67C436.782 456.757 439.437 461.237 441.489 466C439.553 466.911 437.814 468.192 436.369 469.77C435.959 470.22 435.549 470.85 435.829 471.39C436.069 471.85 436.669 471.96 437.189 472.02C438.439 472.15 439.699 472.28 440.949 472.41C441.949 472.52 442.949 472.62 443.949 472.73C445.159 476.701 445.979 480.78 446.399 484.91C447.073 491.334 446.725 497.825 445.369 504.14Z" fill="#F2F2F2"/>
<path d="M478.569 477.93C472.669 482.22 469.219 488.39 466.539 495.19C463.792 496.069 461.321 497.647 459.369 499.77C458.959 500.22 458.549 500.85 458.829 501.39C459.069 501.85 459.669 501.96 460.189 502.02C461.439 502.15 462.699 502.28 463.949 502.41C461.269 510.45 458.809 518.77 454.069 525.56C450.916 530.043 446.807 533.769 442.039 536.47C440.739 537.211 439.396 537.875 438.019 538.46C432.939 538.85 427.955 539.267 423.069 539.71C421.199 539.88 419.342 540.053 417.499 540.23C415.969 540.37 414.459 540.52 412.959 540.66C412.949 540.11 412.949 539.56 412.959 539.01C413.275 524.359 418.665 510.271 428.209 499.15C428.659 498.63 429.119 498.12 429.589 497.61C434.424 492.446 440.11 488.15 446.399 484.91C456.308 479.758 467.415 477.348 478.569 477.93Z" fill="#3B82F6"/>
<path d="M419.229 535.1L418.079 538.5L417.499 540.23C415.969 540.37 414.459 540.52 412.959 540.66L412.689 540.69C411.029 540.86 409.379 541.03 407.729 541.2C407.299 540.7 406.869 540.19 406.449 539.67C396.011 527.03 391.001 510.773 392.513 494.45C394.025 478.128 401.937 463.067 414.519 452.56C413.199 459.47 414.739 466.09 417.269 472.66C416.999 472.77 416.739 472.88 416.489 473C414.553 473.911 412.814 475.192 411.369 476.77C410.959 477.22 410.549 477.85 410.829 478.39C411.069 478.85 411.669 478.96 412.189 479.02C413.439 479.15 414.699 479.28 415.949 479.41C416.949 479.52 417.949 479.62 418.949 479.73C419.419 479.78 419.889 479.83 420.359 479.88C420.429 480.03 420.489 480.17 420.559 480.32C423.409 486.5 426.479 492.71 428.209 499.15C428.643 500.766 428.983 502.405 429.229 504.06C429.999 509.653 429.5 515.347 427.769 520.72C426.037 526.094 423.119 531.009 419.229 535.1Z" fill="#3B82F6"/>
<path d="M483.91 346.255L483.905 346.252C470.458 337.392 457.069 331.325 440.711 328.599C440.516 328.556 440.317 328.513 440.116 328.471C438.084 328.045 435.035 327.534 432.051 327.249C430.558 327.106 429.037 327.016 427.644 327.028C426.454 327.038 425.206 327.123 424.101 327.382C421.542 327.454 412.893 328.272 401.518 331.267C389.296 334.485 373.728 340.264 358.994 350.503C343.895 360.995 331.474 374.891 322.734 391.067L322.729 391.075C313.979 407.388 309.674 425.717 310.249 444.22L310.249 444.234L310.25 444.248C310.998 462.808 316.171 480.921 325.338 497.078C334.388 513.192 347.237 526.852 362.768 536.87L362.774 536.874L362.781 536.878C366.338 539.148 369.994 542.42 373.847 546.213C375.638 547.976 377.441 549.82 379.282 551.703L379.673 552.102C381.641 554.115 383.651 556.165 385.689 558.15C393.657 565.912 402.78 573.474 413.097 573.996C418.345 574.262 423.583 572.697 428.601 570.3C433.627 567.9 438.634 564.567 443.459 561.069C445.879 559.314 448.281 557.497 450.63 555.719L450.794 555.595C453.095 553.853 455.343 552.151 457.551 550.547C462.096 547.244 466.307 544.476 470.167 542.752L470.176 542.748C487.295 535.039 502.095 522.978 513.1 507.767L513.107 507.757C523.786 492.872 530.694 475.619 533.239 457.477C535.869 438.992 534.655 419.844 528.292 402.035C526.742 397.689 524.931 393.441 522.869 389.314C522.766 389.09 522.655 388.87 522.536 388.653C522.534 388.649 522.532 388.645 522.53 388.641C513.661 371.364 499.962 356.88 483.91 346.255ZM504.282 399.034C505.113 400.672 505.896 402.333 506.631 404.015C509.605 411.337 511.685 418.99 512.824 426.809C513.885 435.453 513.879 444.195 512.807 452.837C511.557 461.465 509.255 469.907 505.952 477.974C504.184 482.04 502.15 485.985 499.864 489.784C498.621 491.843 497.303 493.853 495.908 495.815C495.371 496.571 494.814 497.322 494.241 498.084C494.123 498.232 494.017 498.367 493.902 498.51C493.463 499.06 493.017 499.605 492.564 500.145C490.787 502.265 488.915 504.301 486.953 506.248C486.838 506.351 486.724 506.453 486.61 506.555C485.158 507.85 483.797 509.064 482.686 510.057C482.38 510.33 482.093 510.587 481.827 510.825C481.355 511.243 480.932 511.617 480.57 511.936C480.53 511.965 480.489 511.996 480.448 512.026C478.121 513.757 474.343 516.568 472.701 517.606C468.394 520.319 463.887 522.701 459.22 524.732C451.187 528.022 442.781 530.315 434.19 531.56C425.637 532.62 416.985 532.626 408.429 531.575C400.72 530.449 393.174 528.396 385.956 525.462C381.824 523.656 377.833 521.544 374.015 519.144C373.146 518.596 370.235 516.283 367.053 513.712C366.266 513.076 365.469 512.43 364.703 511.809C363.301 510.672 361.999 509.616 361.038 508.851C358.624 506.363 355.104 502.581 351.475 498.616C351.204 498.252 351.02 498.006 350.901 497.85C350.836 497.764 350.779 497.689 350.735 497.633L350.735 497.633C350.733 497.631 350.705 497.594 350.664 497.545C350.375 497.157 350.088 496.766 349.804 496.374C348.377 494.399 347.021 492.377 345.735 490.305C343.015 485.915 340.618 481.332 338.564 476.594C335.358 468.781 333.12 460.606 331.899 452.25C330.973 444.685 330.962 437.037 331.866 429.469C332.95 422.213 334.901 415.112 337.677 408.321C339.584 403.94 341.807 399.702 344.329 395.643C344.825 394.845 345.332 394.054 345.849 393.271C346.672 392.24 347.708 390.783 348.482 389.664C348.89 389.072 349.244 388.55 349.478 388.196C349.577 388.047 349.669 387.907 349.736 387.8C350.55 386.77 351.383 385.757 352.235 384.759L352.235 384.759C355.499 380.938 359.035 377.357 362.815 374.046L362.815 374.046C363.77 373.208 364.74 372.389 365.726 371.587C366.173 371.223 366.624 370.863 367.077 370.506C367.059 370.52 367.134 370.467 367.307 370.345C367.335 370.325 367.366 370.303 367.399 370.279C367.487 370.224 367.585 370.16 367.684 370.095C368.026 369.871 368.536 369.531 369.117 369.133C370.225 368.375 371.68 367.35 372.758 366.501C373.082 366.288 373.408 366.077 373.735 365.868C378.106 363.072 382.687 360.619 387.435 358.53C391.439 356.995 401.212 354.457 411.106 352.33C416.245 351.225 421.31 350.253 425.458 349.611C427.534 349.289 429.349 349.055 430.813 348.927C431.985 348.824 432.809 348.801 433.323 348.822C441.316 350.068 449.136 352.249 456.621 355.321C460.569 357.033 464.411 358.981 468.125 361.154C470.098 362.311 472.033 363.531 473.928 364.813C474.825 365.421 475.713 366.041 476.591 366.676C477.03 366.993 477.466 367.313 477.899 367.637L477.9 367.637C478.043 367.744 478.159 367.831 478.281 367.924C478.357 367.981 478.436 368.041 478.525 368.108C481.967 370.831 485.24 373.762 488.325 376.884C489.821 378.409 493.534 382.688 495.092 384.498C495.201 384.643 495.307 384.783 495.411 384.92C495.658 385.245 495.892 385.554 496.131 385.877C499.096 389.891 501.74 394.132 504.039 398.561C504.116 398.72 504.197 398.878 504.282 399.034ZM494.063 498.639L494.796 499.225L494.063 498.639ZM494.456 498.035L495.34 498.737L494.456 498.035Z" fill="#F2F2F2" stroke="#F2F2F2" stroke-width="6"/>
<path d="M103.249 439C103.249 443.418 99.6671 447 95.2488 447C90.8305 447 87.2488 443.418 87.2488 439C87.2488 434.582 90.8305 431 95.2488 431C99.6671 431 103.249 434.582 103.249 439Z" fill="#F2F2F2" stroke="#F2F2F2" stroke-width="6"/>
<path d="M235.249 559C235.249 563.418 231.667 567 227.249 567C222.831 567 219.249 563.418 219.249 559C219.249 554.582 222.831 551 227.249 551C231.667 551 235.249 554.582 235.249 559Z" fill="#F2F2F2" stroke="#F2F2F2" stroke-width="6"/>
<path d="M728.249 573C735.981 573 742.249 566.732 742.249 559C742.249 551.268 735.981 545 728.249 545C720.517 545 714.249 551.268 714.249 559C714.249 566.732 720.517 573 728.249 573Z" fill="#F2F2F2" stroke="#F2F2F2" stroke-width="6"/>
<path d="M723.249 328C729.324 328 734.249 323.075 734.249 317C734.249 310.925 729.324 306 723.249 306C717.174 306 712.249 310.925 712.249 317C712.249 323.075 717.174 328 723.249 328Z" fill="#F2F2F2"/>
<path d="M228.768 323.158C230.355 321.499 231.243 319.292 231.249 316.996L228.768 323.158ZM228.768 323.158C227.181 324.818 225.017 325.805 222.723 325.913M228.768 323.158L222.723 325.913M222.723 325.913C220.429 326.022 218.181 325.244 216.444 323.742M222.723 325.913L216.444 323.742M216.444 323.742C214.708 322.239 213.615 320.126 213.393 317.84M216.444 323.742L213.393 317.84M213.393 317.84C213.171 315.555 213.836 313.271 215.25 311.462M213.393 317.84L215.25 311.462M215.25 311.462C216.665 309.653 218.721 308.457 220.993 308.121M215.25 311.462L220.993 308.121M220.993 308.121C223.265 307.786 225.579 308.337 227.456 309.66M220.993 308.121L227.456 309.66M227.456 309.66C229.333 310.983 230.629 312.977 231.077 315.229L227.456 309.66ZM231.077 315.23C231.192 315.811 231.25 316.403 231.249 316.995L231.077 315.23Z" fill="#F2F2F2" stroke="#F2F2F2" stroke-width="4"/>
<path d="M599.249 457C606.981 457 613.249 450.732 613.249 443C613.249 435.268 606.981 429 599.249 429C591.517 429 585.249 435.268 585.249 443C585.249 450.732 591.517 457 599.249 457Z" fill="#F2F2F2" stroke="#F2F2F2" stroke-width="6"/>
<path d="M858.941 570.841L1.19067 571.148C1.03431 571.148 0.879476 571.117 0.735016 571.057C0.590556 570.997 0.459305 570.91 0.34874 570.799C0.238175 570.689 0.150459 570.557 0.0906219 570.413C0.0307847 570.269 0 570.114 0 569.957C0 569.801 0.0307847 569.646 0.0906219 569.502C0.150459 569.357 0.238175 569.226 0.34874 569.115C0.459305 569.005 0.590556 568.917 0.735016 568.857C0.879476 568.797 1.03431 568.767 1.19067 568.767L858.941 568.459C859.256 568.46 859.558 568.586 859.78 568.809C860.003 569.032 860.128 569.335 860.128 569.65C860.128 569.965 860.003 570.267 859.78 570.491C859.558 570.714 859.256 570.84 858.941 570.841Z" fill="#CACACA"/>
</g>
<defs>
<clipPath id="clip0_3_2">
<rect width="860.131" height="571.148" fill="white"/>
</clipPath>
</defs>
</svg>
